/* XPM */
static char * boom3_xpm[] = {
"32 32 6 1",
" 	c None",
".	c #110D1A",
"+	c #CA6230",
"@	c #E48334",
"#	c #F4AA38",
"$	c #F5C94A",
"............+@@@+...............",
".........@.@@#@@#@....@@........",
"......+@@...#.$......@@++.......",
"....@@@#@......@..#...##@..+@...",
"...++#@....@@...@@.....#+.@ @+..",
"..+..........@@...@@......#@@++.",
"..+...+#@..........@#.@@..##@+..",
"......@##@..@..........@...##@..",
".....@##.................@#.#@+.",
"..@.@#.#....................@@..",
".@@.#...................#...@...",
"+@.......................@......",
"@...@......................@.#@.",
"@...#.#....................#@#@.",
"+.@..#..................#...##@.",
"..@..@.......................@+.",
".+@.......................@..@..",
".@@#...#..................#..@.#",
".@@##....................#.@...#",
".+@.@......................#...@",
"......#.......................#@",
"...@...#...................@.#@.",
"..@@....................@.@@.@..",
".+@#.+@.................#@#.....",
"..@@#...@..........#..@###......",
"..@@@#..@#.#@..........#@@...@..",
".++@@@......@#...#@..........+..",
"..+@ @.@#.....#@...#@....##@+...",
"...+@..@##...@..@......##@++....",
".......+@@@......#.@...@++......",
"........+@....@####@+.+.........",
"...............+@@@+............"};
