/* XPM */
static char * boom2_xpm[] = {
"32 32 6 1",
" 	c #110D1A",
".	c #E48334",
"+	c #CA6230",
"@	c #F4AA38",
"#	c #F5C94A",
"$	c #F8E97D",
"             .....   ...        ",
"      +.   .+..   +.   ...      ",
"    +.@.+ .+    @.@             ",
"   ..  .@+.. @.@    ..@.  .     ",
"   +  .. .@           @#. ..+   ",
"     .@   @. ..@@  .    #@ @.+  ",
"    +@      .##  .       . @@++ ",
"    .  ..  ##      ##@   @  @.+ ",
"      .@        @@   #..   @#.  ",
"  .  .@      ##  #@    #@  #@#  ",
" .@  .#    ##$        $##.  .@@ ",
"+@   @     #$    ##    $@@.  @. ",
"+@@  @  @  #$     $$#  #  .   . ",
"+.@  @ .    # $    $$  #@ .     ",
"+ .#   @            $#  @   @   ",
"  .#  .@  #     $    $  #.  @   ",
"   @  .@  #    $     $  #.  #@  ",
"   .   @  #$            @   #@ +",
"     . @#  #$    $ #    . .  @..",
" +   .  @  ##$     $#  @  @  @..",
" +@  .@@#    ##    $#     @   .+",
" +.@  .###        $##    #.  .+ ",
"  @.@  @@    @#  ##      @.  +  ",
"  .#@   #@#   @@        @.      ",
" +.@  @   @##      #@  .@  +    ",
" +..@ .       @  ##@      .@    ",
"  +.@ .@    @  @@@. .@   @@     ",
"   ... .@#           @@ @.  .   ",
"     @  ..@@    @@@ @@...  .+   ",
"             ...    .. ....+    ",
"      +..   .@   ..@.   .+      ",
"        +..   +++.+             "};
