/* XPM */
static char *b0ce82baca4f4fecef0e0306a30ebacdzpDiP7tIqPKa9ZPM[] = {
/* columns rows colors chars-per-pixel */
"32 32 123 2 ",
"   c None",
".  c #131D1F",
"X  c #141F21",
"o  c #162124",
"O  c #182426",
"+  c #192629",
"@  c #1C2A2D",
"#  c #1F2E31",
"$  c #1F3033",
"%  c #202F33",
"&  c #213235",
"*  c #233539",
"=  c #25393D",
"-  c #263D41",
";  c #293E42",
":  c #294146",
">  c #2A464C",
",  c #2B484E",
"<  c #2C4D54",
"1  c #2E535B",
"2  c #2F5861",
"3  c #315C65",
"4  c #315F69",
"5  c #32626C",
"6  c #336671",
"7  c #356A76",
"8  c #366E7A",
"9  c #37717D",
"0  c #38737F",
"q  c #397682",
"w  c #3A7986",
"e  c #3C7D8B",
"r  c #3C818F",
"t  c #3E8594",
"y  c #3F8897",
"u  c #3F8998",
"i  c #418C9C",
"p  c #4392A2",
"a  c #4597A8",
"s  c #469BAD",
"d  c #479EB0",
"f  c #489FB1",
"g  c #49A1B3",
"h  c #4BA7B9",
"j  c #4CAABD",
"k  c #4DADC1",
"l  c #4FB2C6",
"z  c #50B3C7",
"x  c #50B5CA",
"c  c #52B9CE",
"v  c #53BDD2",
"b  c #53BDD3",
"n  c #54BED3",
"m  c #54BFD5",
"M  c #53BCD2",
"N  c #55C1D7",
"B  c #55C1D7",
"V  c #55C2D8",
"C  c #56C3D9",
"Z  c #56C3DA",
"A  c #56C4DA",
"S  c #56C4DB",
"D  c #56C5DB",
"F  c #57C6DC",
"G  c #57C6DD",
"H  c #57C7DD",
"J  c #56C4DA",
"K  c #58C7DE",
"L  c #58C8DE",
"P  c #58C8DF",
"I  c #58C9E0",
"U  c #59CAE1",
"Y  c #59CBE2",
"T  c #59CCE3",
"R  c #5ACCE3",
"E  c #5ACDE4",
"W  c #5ACDE5",
"Q  c #5ACEE5",
"!  c #5ACEE6",
"~  c #5BCFE7",
"^  c #59CCE3",
"/  c #5BD0E7",
"(  c #5BD0E8",
")  c #5BD1E8",
"_  c #5CD1E9",
"`  c #5CD2E9",
"'  c #5CD2EA",
"]  c #5CD3EB",
"[  c #5DD4EC",
"{  c #5DD5ED",
"}  c #5ED7EF",
"|  c #5CD2EA",
" . c #5ED8F0",
".. c #91958A",
"X. c #92958B",
"o. c #93968C",
"O. c #93978C",
"+. c #94978D",
"@. c #93978C",
"#. c #95988D",
"$. c #95988E",
"%. c #95998E",
"&. c #96998E",
"*. c #96998F",
"=. c #969A8F",
"-. c #979A8F",
";. c #95998E",
":. c #979A90",
">. c #979B90",
",. c #979A90",
"<. c #989B90",
"1. c #989C91",
"2. c #999C91",
"3. c #989B90",
"4. c #CFC3B9",
"5. c #D0C3B9",
"6. c #D0C3BA",
"7. c #D0C4BA",
"8. c #D1C4BA",
"9. c #D1C4BB",
"0. c #D1C5BB",
"q. c #D2C5BB",
"w. c #D1C4BA",
/* pixels */
"                                                                ",
"                        q.q.q.q.q.q.q.q.q.                      ",
"                  q.q.2.<.<.*.*. .*.*.*.:.<.q.q.                ",
"                q.2.<. .{ ' ~ ~ Y T ~ ~ ' { *.:.q.              ",
"            q.q.<.{ ' Y V b c z l l z c m H ~ ' *.5.q.          ",
"          q.2.*.' Y m z h s p i t i i a g k c A ~ +.*.q.        ",
"        q.<.*.( A z g i e 8 5 3 1 3 4 7 q t s j M Y o.*.q.      ",
"        q.*.~ V k a e 5 1 > - - = - - : < 4 9 i g z H o.4.      ",
"      q.*.( V k p 9 1 : = * & & & % & * = ; < 5 r d z Y +.q.    ",
"    q.:.{ H l p 9 < - * & # @ @ + + @ # & * = , 5 t g M ~ *.q.  ",
"    q.*.~ c s q 1 - * & @ + O O O O O + @ % * = , 6 u j V o.5.  ",
"    :.' A j t 4 : * % @ O O o X X X o O O + % * - 1 0 s c ~ *.  ",
"  q.*.~ M s 9 < = & @ O O X X . . . X X O + @ & = : 5 u k L *.q.",
"  q.*.Y z p 5 : * # + O X . . . . . . . X O + # * - 1 e g V o.q.",
"  q.+.H k t 2 - & @ O o X . . . . . . . X o o @ * = < 9 s n o.q.",
"  5.o.A h e 1 = & @ O X . . . . . . . . . X O @ & = , 7 a M o.5.",
"  5.' A h e 1 = & @ O X . . . . . . . . . X O @ & = , 7 a M ' q.",
"  5.o.A j e 1 = & @ O X . . . . . . . . . X O + & = , 8 s b o.q.",
"  q.+.H k t 3 - & @ O o X . . . . . . . X o O @ * = < q g N o.q.",
"  q.*.Y z p 5 : * # + O X X . . . . . . X O + # * - 2 r h H *.q.",
"  q.*.~ M s q < = & @ + O X X . . . X o O + @ & = , 6 i l T *.q.",
"    <.' V j t 4 : * & @ + O o X X X o o + @ & * - 1 q s b ' <.  ",
"    q.*.Y c s q 1 ; * & # @ + O o O + @ @ & * - < 7 i k L *.q.  ",
"    q.:.' A k i 7 < ; * & $ # # @ @ # % & * - , 4 t g n ' :.q.  ",
"      q.*.~ m h i 7 1 : = * * & & * * * = ; < 5 e s z T *.q.    ",
"        q.*.T b h i q 4 < : ; = = = = ; , 1 6 r s l L +.q.      ",
"        q.<.*.T n j a r 9 5 1 < < < 1 2 6 q i g z K o.<.q.      ",
"          q.<.*.~ V z h a y e q 9 0 w r i s k b Y +.<.q.        ",
"            q.q.*.' Y N c k h f s s g h l M H / *.q.q.          ",
"                q.<.*.' ~ L A N m m V H Y ( *.*.q.              ",
"                  q.q.<.*.*.+.o.' o.o.*.*.:.q.q.                ",
"                        q.q.q.q.q.5.q.q.q.                      "
};
