/* XPM */
static char * invader2_xpm[] = {
"32 32 3 1",
" 	c #110D1A",
".	c #FFD285",
"+	c #EB1919",
"                                ",
"                                ",
"                                ",
"           ..........           ",
"           ..........           ",
"           ..........           ",
"    ........................    ",
"   ..........................   ",
"   ..........................   ",
"   ..........................   ",
" .............................. ",
" .............................. ",
" .............................. ",
" .............................. ",
" ........++++......++++........ ",
" ........++++......++++........ ",
" .............................. ",
" .............................. ",
" .............................. ",
" .............................. ",
"        ......++++......        ",
"        ......++++......        ",
"        ......++++......        ",
"      ....................      ",
"      ...... ...... ......      ",
"      ...... ...... ......      ",
" ..........  ......  .......... ",
" .....                   ...... ",
" .....                   ...... ",
" .....                   ...... ",
"                                ",
"                                "};
