/* XPM */
static char * invader_spawn_xpm[] = {
"32 32 434 2",
"  	c None",
". 	c #67AD0D",
"+ 	c #74A93E",
"@ 	c #DE695B",
"# 	c #EE5744",
"$ 	c #EA5644",
"% 	c #EF503D",
"& 	c #7BA817",
"* 	c #F1503C",
"= 	c #EF5644",
"- 	c #F15744",
"; 	c #E76D61",
"> 	c #74A940",
", 	c #DD6558",
"' 	c #E95040",
") 	c #E44837",
"! 	c #E04834",
"~ 	c #BE7A2A",
"{ 	c #E54837",
"] 	c #EA4E3B",
"^ 	c #F04F3B",
"/ 	c #F65342",
"( 	c #E96C5E",
"_ 	c #9F968C",
": 	c #E74D3D",
"< 	c #DC4533",
"[ 	c #D64230",
"} 	c #D5412F",
"| 	c #CA3F2D",
"1 	c #D2412F",
"2 	c #E94C3B",
"3 	c #AC8C81",
"4 	c #E05748",
"5 	c #E24836",
"6 	c #DA4432",
"7 	c #D2402E",
"8 	c #C63D2C",
"9 	c #BA382A",
"0 	c #B23326",
"a 	c #A73021",
"b 	c #A53021",
"c 	c #AA3224",
"d 	c #B73627",
"e 	c #BC3A2C",
"f 	c #CF402E",
"g 	c #E34835",
"h 	c #F74F3C",
"i 	c #E76454",
"j 	c #A69086",
"k 	c #AC8B80",
"l 	c #DD4937",
"m 	c #B23328",
"n 	c #A32F1F",
"o 	c #992B1C",
"p 	c #92281B",
"q 	c #8D261A",
"r 	c #8A2619",
"s 	c #8D271A",
"t 	c #93281C",
"u 	c #9B2B1E",
"v 	c #A93023",
"w 	c #BC3A29",
"x 	c #D34230",
"y 	c #DE4633",
"z 	c #EA4E3A",
"A 	c #F5503D",
"B 	c #EA6857",
"C 	c #C07D72",
"D 	c #C43C2B",
"E 	c #A83022",
"F 	c #842418",
"G 	c #7F2318",
"H 	c #742217",
"I 	c #702216",
"J 	c #812217",
"K 	c #822418",
"L 	c #862518",
"M 	c #8E271B",
"N 	c #9B2B1F",
"O 	c #B53828",
"P 	c #EB6A59",
"Q 	c #C47268",
"R 	c #E14935",
"S 	c #C33B2A",
"T 	c #94271B",
"U 	c #862419",
"V 	c #762218",
"W 	c #6C1F16",
"X 	c #631A13",
"Y 	c #5B1810",
"Z 	c #5A1810",
"` 	c #5B1811",
" .	c #601913",
"..	c #661D16",
"+.	c #6F2216",
"@.	c #822318",
"#.	c #88251A",
"$.	c #96291E",
"%.	c #B43727",
"&.	c #D1412F",
"*.	c #E14834",
"=.	c #ED4F3A",
"-.	c #F75742",
";.	c #B28C81",
">.	c #C2766B",
",.	c #E15548",
"'.	c #D84432",
").	c #832418",
"!.	c #6D1F16",
"~.	c #5D1810",
"{.	c #4B160E",
"].	c #47140D",
"^.	c #40110D",
"/.	c #3D100D",
"(.	c #44130D",
"_.	c #4B140E",
":.	c #581610",
"<.	c #661E15",
"[.	c #762216",
"}.	c #872519",
"|.	c #D54431",
"1.	c #E64937",
"2.	c #F44F3B",
"3.	c #E97C7E",
"4.	c #CB6D62",
"5.	c #D13F2E",
"6.	c #AE3427",
"7.	c #96271C",
"8.	c #832419",
"9.	c #6D1F15",
"0.	c #58170F",
"a.	c #47150E",
"b.	c #3A0D0A",
"c.	c #320B07",
"d.	c #2B0B06",
"e.	c #2A0A06",
"f.	c #2D0B07",
"g.	c #380C09",
"h.	c #43100C",
"i.	c #4E150F",
"j.	c #661D15",
"k.	c #882519",
"l.	c #9A2B20",
"m.	c #BD3C2E",
"n.	c #DD4533",
"o.	c #949D60",
"p.	c #75A73B",
"q.	c #E35548",
"r.	c #D64231",
"s.	c #A12D1F",
"t.	c #87251A",
"u.	c #6E2015",
"v.	c #581710",
"w.	c #370C08",
"x.	c #290B06",
"y.	c #240805",
"z.	c #200705",
"A.	c #1F0705",
"B.	c #220805",
"C.	c #260806",
"D.	c #2F0B07",
"E.	c #3B0E0A",
"F.	c #4C150F",
"G.	c #812318",
"H.	c #8B271B",
"I.	c #A93026",
"J.	c #E74A39",
"K.	c #E46964",
"L.	c #7AA74F",
"M.	c #C27368",
"N.	c #D2402F",
"O.	c #B23828",
"P.	c #94271C",
"Q.	c #792418",
"R.	c #5F1912",
"S.	c #290A06",
"T.	c #210705",
"U.	c #1D0705",
"V.	c #1C0704",
"W.	c #1B0704",
"X.	c #1E0705",
"Y.	c #230805",
"Z.	c #2E0A07",
"`.	c #3F100A",
" +	c #551610",
".+	c #6E2116",
"++	c #852519",
"@+	c #982B1F",
"#+	c #C3402F",
"$+	c #F14F3A",
"%+	c #F05744",
"&+	c #BD8479",
"*+	c #D96053",
"=+	c #DC4534",
"-+	c #CE3E2C",
";+	c #AA3327",
">+	c #8A261B",
",+	c #6D2015",
"'+	c #4F160F",
")+	c #3B0D0A",
"!+	c #1D0704",
"~+	c #320B08",
"{+	c #46110E",
"]+	c #611C14",
"^+	c #812418",
"/+	c #90281D",
"(+	c #B73A2C",
"_+	c #EE4F3A",
":+	c #F75642",
"<+	c #C8776B",
"[+	c #DF5C4B",
"}+	c #DA4433",
"|+	c #C73C2B",
"1+	c #A12E21",
"2+	c #85251A",
"3+	c #48150E",
"4+	c #320C07",
"5+	c #250805",
"6+	c #2A0906",
"7+	c #3B0F0A",
"8+	c #591912",
"9+	c #742218",
"0+	c #8A271B",
"a+	c #AF3427",
"b+	c #EB4F3A",
"c+	c #F15644",
"d+	c #C77A6F",
"e+	c #E15442",
"f+	c #D94432",
"g+	c #C63B2A",
"h+	c #9C2D21",
"i+	c #7A2419",
"j+	c #601A12",
"k+	c #41110D",
"l+	c #2E0B06",
"m+	c #240806",
"n+	c #370C09",
"o+	c #511610",
"p+	c #6F2117",
"q+	c #87261B",
"r+	c #A83126",
"s+	c #D94431",
"t+	c #EA4C3A",
"u+	c #C57E73",
"v+	c #78A81C",
"w+	c #B97A28",
"x+	c #40100D",
"y+	c #2C0B06",
"z+	c #360C09",
"A+	c #6F2116",
"B+	c #86261B",
"C+	c #969F22",
"D+	c #909E25",
"E+	c #E55344",
"F+	c #CB3C2B",
"G+	c #A02F24",
"H+	c #7A241A",
"I+	c #AD3126",
"J+	c #E3703A",
"K+	c #9B9961",
"L+	c #E35A4C",
"M+	c #AB3427",
"N+	c #300C07",
"O+	c #280806",
"P+	c #8E261B",
"Q+	c #B5352A",
"R+	c #B18C80",
"S+	c #DE6053",
"T+	c #E14835",
"U+	c #AE3828",
"V+	c #8F281C",
"W+	c #6D2115",
"X+	c #4D160F",
"Y+	c #3A0C09",
"Z+	c #270A06",
"`+	c #2F0A07",
" @	c #46110B",
".@	c #631C14",
"+@	c #95281D",
"@@	c #BF3E2F",
"#@	c #AC9187",
"$@	c #D66D62",
"%@	c #E74A3A",
"&@	c #C13B2A",
"*@	c #9A2B1F",
"=@	c #792419",
"-@	c #5F1A12",
";@	c #46130E",
">@	c #330C07",
",@	c #250905",
"'@	c #3D0D0A",
")@	c #531610",
"!@	c #A12C21",
"~@	c #CD4230",
"{@	c #FA5B4B",
"]@	c #99987D",
"^@	c #7AA738",
"/@	c #EB574B",
"(@	c #CF3F2E",
"_@	c #AB3425",
":@	c #6F2115",
"<@	c #551710",
"[@	c #3F0E0B",
"}@	c #390C09",
"|@	c #4A120E",
"1@	c #641D15",
"2@	c #93271B",
"3@	c #B6362A",
"4@	c #DA4533",
"5@	c #E37F81",
"6@	c #8AA259",
"7@	c #E06759",
"8@	c #E54937",
"9@	c #D84431",
"0@	c #C23C2B",
"a@	c #A02E20",
"b@	c #8A251A",
"c@	c #531710",
"d@	c #43110E",
"e@	c #350C08",
"f@	c #270906",
"g@	c #260805",
"h@	c #290906",
"i@	c #300B07",
"j@	c #8D251A",
"k@	c #A93222",
"l@	c #CF4231",
"m@	c #F95B48",
"n@	c #BF7E70",
"o@	c #D3412F",
"p@	c #BF3828",
"q@	c #9F2E20",
"r@	c #89251A",
"s@	c #6E2016",
"t@	c #5A1811",
"u@	c #410F0C",
"v@	c #3B0D09",
"w@	c #3E0D0A",
"x@	c #47120E",
"y@	c #551711",
"z@	c #681F16",
"A@	c #A33221",
"B@	c #C83D2D",
"C@	c #DF4834",
"D@	c #EE6B61",
"E@	c #8E9F80",
"F@	c #EA4F3B",
"G@	c #D0402E",
"H@	c #C03829",
"I@	c #8F271A",
"J@	c #772418",
"K@	c #6D1F17",
"L@	c #641A13",
"M@	c #561810",
"N@	c #551810",
"O@	c #561811",
"P@	c #5B1913",
"Q@	c #681E16",
"R@	c #702217",
"S@	c #872418",
"T@	c #91271B",
"U@	c #C53C2C",
"V@	c #DA4633",
"W@	c #F15140",
"X@	c #F15948",
"Y@	c #88A169",
"Z@	c #EA5C4D",
"`@	c #C2392A",
" #	c #A43124",
".#	c #972B1B",
"+#	c #8E2719",
"@#	c #762418",
"##	c #742318",
"$#	c #862418",
"%#	c #892419",
"&#	c #8E271A",
"*#	c #9A2C1D",
"=#	c #AD3424",
"-#	c #C93E2E",
";#	c #EF5240",
">#	c #ED5848",
",#	c #CE786A",
"'#	c #B58D82",
")#	c #CC3E2D",
"!#	c #BE3928",
"~#	c #B03426",
"{#	c #A33021",
"]#	c #9C2C1C",
"^#	c #982B1B",
"/#	c #9E2C1E",
"(#	c #A63021",
"_#	c #B13428",
":#	c #C33C2A",
"<#	c #D44230",
"[#	c #EC5848",
"}#	c #D27163",
"|#	c #F0503C",
"1#	c #E94C3A",
"2#	c #D24030",
"3#	c #CF3F2D",
"4#	c #C23B2A",
"5#	c #C23B29",
"6#	c #C63D2B",
"7#	c #D03F2E",
"8#	c #D74333",
"9#	c #DC4834",
"0#	c #F55041",
"a#	c #C68274",
"b#	c #84A46D",
"c#	c #8EB467",
"d#	c #E66F61",
"e#	c #F25B4D",
"f#	c #DE4834",
"g#	c #E34837",
"h#	c #F45946",
"i#	c #E56D65",
"j#	c #C38779",
"k#	c #F1513C",
"l#	c #F1503B",
"m#	c #F14F3B",
"n#	c #F75040",
"o#	c #F45947",
"p#	c #EA7C78",
"q#	c #BC8C73",
"r#	c #83A36C",
"s#	c #7AA83B",
"t#	c #DD7769",
"u#	c #EA6C5C",
"v#	c #F06656",
"w#	c #F15F4E",
"x#	c #70AB17",
"y#	c #F36352",
"z#	c #EA6B5B",
"A#	c #E47163",
"                                                                ",
"                        . . . . . . . . .                       ",
"                  . . + @ # $ % & * = - ; > . .                 ",
"                . . , ' ) ) ! ! ~ { ) ] ^ / ( _ .               ",
"            . . , : ! < [ } | | | 1 [ < ! 2 ^ / ( . .           ",
"          . 3 4 5 6 7 8 9 0 a b b c d e f 6 g ] h i j .         ",
"        . k 4 l [ 8 m n o p q r r s t u v w x y z A B C .       ",
"        . 4 l 7 D E o q F G H I I J K L M N O f y z h P .       ",
"      . Q R } S E T U V W X Y Z `  ...+.@.#.$.%.&.*.=.-.;..     ",
"    . >.,.'.D E T ).!.~.{.].^././.(._.:.<.[.}.$.O |.1.2.3.. .   ",
"    . 4.l 5.6.7.8.9.0.a.b.c.d.e.e.f.g.h.i.j.[.k.l.m.n.=.-.o..   ",
"    p.q.r.S s.t.u.v.(.w.x.y.z.A.A.B.C.D.E.F.j.G.H.I.x J.2.K.L.  ",
"  . M.R N.O.P.Q.R.a.w.S.T.U.V.W.W.V.X.Y.Z.`. +.+++@+#+*.$+%+&+. ",
"  . *+=+-+;+>+,+'+)+d.T.!+W.W.W.W.W.V.X.Y.~+{+]+^+/+(+n._+:+<+. ",
"  . [+}+|+1+2+j.3+4+5+U.W.W.W.W.W.W.W.V.z.6+7+8+9+0+a+6 b+c+d+. ",
"  . e+f+g+h+i+j+k+l+T.V.W.W.W.W.W.W.W.W.U.m+n+o+p+q+r+s+t+/ u+. ",
"  . v+w+g+h+i+j+x+y+T.W.W.W.W.W.W.W.W.W.U.y.z+o+A+B+r+s+t+C+D+. ",
"  . E+}+F+G+H+j+x+y+T.V.W.W.W.W.W.W.W.W.U.y.z+o+p+>+I+6 b+J+K+. ",
"  . L+=+-+M+>+j.3+N+Y.!+W.W.W.W.W.W.W.W.A.O+)+8+9+P+Q+n._+:+R+. ",
"  . S+T+N.U+V+W+X+Y+Z+A.V.W.W.W.W.W.W.U.B.`+ @.@K +@@@*.$+-.#@. ",
"  . $@%@[ &@*@=@-@;@>@,@A.V.W.W.W.W.U.T.6+'@)@A+k.!@~@J.2.{@]@. ",
"    ^@/@n.(@_@M :@<@[@>@,@T.X.U.U.A.B.6+}@|@1@K 2@3@4@=.:+5@6@  ",
"    . 7@8@9@0@a@b@u.c@d@e@y+f@5+g@h@i@'@F.1@V j@k@l@1.2.m@n@.   ",
"    . . /@*.o@p@q@r@s@t@X+u@v@}@}@w@x@y@z@V j@A@B@C@=.c+D@E@.   ",
"      . 7@F@y G@H@q@I@J@K@L@M@N@O@P@Q@R@S@T@k@U@V@z W@X@Y@.     ",
"        . Z@F@y x `@ #.#+#U @#####$#%#&#*#=#-#V@z ;#>#,#.       ",
"        . '#Z@F@g '.)#!#~#{#]#^#^#/#(#_#:#<#T+z W@[#}#. .       ",
"          . '#Z@|#1#! 4@2#3#4#5#5#6#7#8#9#1#$+0#[#a#b#.         ",
"            c#. d#e#|#z { { f#f#f#g#{ z $+h h#i#j#. .           ",
"                . '#d#e#k#l#^ m#m#m#m#n#o#p#q#r#.               ",
"                  . . s#t#u#v#w#x#y#z#A#j#. . .                 ",
"                        . . . . . . . . .                       "};
