/* XPM */
static char * invader_xpm[] = {
"32 32 3 1",
" 	c #110D1A",
".	c #08DFB8",
"+	c #F2D68F",
"                                ",
"                                ",
"                                ",
"                                ",
"                                ",
"                                ",
"     ....             ....      ",
"     ....             ....      ",
" ... .......        ......  ... ",
" ...    ....       ....     ... ",
" ...    ....       ....     ... ",
" ... .....................  ... ",
" ... .....................  ... ",
" ... .....................  ... ",
" .............................. ",
" .............................. ",
" ........++.........++......... ",
" ........++.........++......... ",
" .............................. ",
" .............................. ",
"   ..........................   ",
"   ..........................   ",
"     ....             ....      ",
"     ....             ....      ",
"   ......             ......    ",
"   ...                   ....   ",
"   ...                   ....   ",
"   ...                   ...    ",
"                                ",
"                                ",
"                                ",
"                                "};
