/* XPM */
static char * invader1_xpm[] = {
"32 32 3 1",
" 	c #110D1A",
".	c #ED8FF2",
"+	c #85FFE1",
"                                ",
"                                ",
"                                ",
"                                ",
"                                ",
"                                ",
"       ...            ...       ",
"       ...            ...       ",
"       .....        .....       ",
"         ....      ....         ",
"         ....      ....         ",
"       ..................       ",
"       ..................       ",
"    ........................    ",
"    ......++........++......    ",
"    ......++........++......    ",
" .............................. ",
" .............................. ",
" .............................. ",
" .............................. ",
" ....  ..................  .... ",
" ....  ..................  .... ",
" ....  ...            ...  .... ",
" ....  ...            ...  .... ",
"  ..   ........  ........   ..  ",
"         ......  ......         ",
"         ......  ......         ",
"                                ",
"                                ",
"                                ",
"                                ",
"                                "};
