/* XPM */
static char * laser1_xpm[] = {
"32 32 252 2",
"  	c #110D1A",
". 	c #00FFE9",
"+ 	c #00FFCC",
"@ 	c #00FFD4",
"# 	c #00FFB3",
"$ 	c #00FF6B",
"% 	c #00FFE8",
"& 	c #01FF63",
"* 	c #01FFDF",
"= 	c #37FF66",
"- 	c #0FFFE8",
"; 	c #44FF6A",
"> 	c #5EFFD5",
", 	c #54FF69",
"' 	c #BAFF5E",
") 	c #A3FF41",
"! 	c #02FF58",
"~ 	c #08FFB4",
"{ 	c #19FFCC",
"] 	c #41FFA7",
"^ 	c #55FF63",
"/ 	c #33FFE3",
"( 	c #89FF5A",
"_ 	c #B7FF41",
": 	c #BFFF2D",
"< 	c #62FF85",
"[ 	c #9AFF50",
"} 	c #A6FF00",
"| 	c #96FF95",
"1 	c #72FFC0",
"2 	c #9AFF00",
"3 	c #93FF4A",
"4 	c #77FF5E",
"5 	c #BAFF45",
"6 	c #87FF23",
"7 	c #5AFF08",
"8 	c #28FFE0",
"9 	c #8AFF00",
"0 	c #81FF16",
"a 	c #61FF16",
"b 	c #63FF00",
"c 	c #76FF00",
"d 	c #85FF84",
"e 	c #98FF84",
"f 	c #B1FF01",
"g 	c #3CFFDB",
"h 	c #95FF3B",
"i 	c #88FF38",
"j 	c #9CFF31",
"k 	c #B1FF6A",
"l 	c #A1FF77",
"m 	c #A8FF74",
"n 	c #9EFF79",
"o 	c #56FFD9",
"p 	c #8EFFBD",
"q 	c #C4FFA3",
"r 	c #BEFF97",
"s 	c #6CFFB8",
"t 	c #71FFB3",
"u 	c #C2FF98",
"v 	c #75FFD4",
"w 	c #9CFF97",
"x 	c #B2FF78",
"y 	c #C7FF74",
"z 	c #BEFF73",
"A 	c #60FF0D",
"B 	c #5FFF01",
"C 	c #6EFF00",
"D 	c #43FFD0",
"E 	c #62FF83",
"F 	c #5DFF00",
"G 	c #9DFF00",
"H 	c #AFFF01",
"I 	c #96FF85",
"J 	c #6DFFB6",
"K 	c #88FF92",
"L 	c #13FFE7",
"M 	c #B3FF74",
"N 	c #ABFF77",
"O 	c #A9FF7B",
"P 	c #88FF57",
"Q 	c #92FF6C",
"R 	c #A8FF7C",
"S 	c #A2FF78",
"T 	c #54FFD7",
"U 	c #8FFFA6",
"V 	c #82FF5B",
"W 	c #83FF97",
"X 	c #9AFF8A",
"Y 	c #C4FF8C",
"Z 	c #A3FF64",
"` 	c #52FFD9",
" .	c #C8FF82",
"..	c #A7FF33",
"+.	c #8AFF27",
"@.	c #6BFF0B",
"#.	c #65FF00",
"$.	c #6DFF00",
"%.	c #77FF6C",
"&.	c #22FFD7",
"*.	c #58FF87",
"=.	c #9EFF01",
"-.	c #B1FF05",
";.	c #A6FF29",
">.	c #A9FF49",
",.	c #A2FF4D",
"'.	c #75FFC1",
").	c #9FFFAD",
"!.	c #56FFDE",
"~.	c #ACFF80",
"{.	c #B1FF6F",
"].	c #A8FF7B",
"^.	c #9EFF7C",
"/.	c #A0FF82",
"(.	c #ADFF88",
"_.	c #8DFF9B",
":.	c #21FFE5",
"<.	c #69FFB4",
"[.	c #94FF7A",
"}.	c #B5FF79",
"|.	c #A6FF7D",
"1.	c #C2FF83",
"2.	c #B9FF3F",
"3.	c #60FFC9",
"4.	c #72FF15",
"5.	c #80FF0D",
"6.	c #64FF01",
"7.	c #83FF00",
"8.	c #89FF00",
"9.	c #7BFF00",
"0.	c #67FF00",
"a.	c #2DFFDC",
"b.	c #A1FF52",
"c.	c #A9FF3C",
"d.	c #B1FF5B",
"e.	c #C1FF85",
"f.	c #A2FF60",
"g.	c #BFFF7D",
"h.	c #C0FF8F",
"i.	c #A2FFA4",
"j.	c #8FFF98",
"k.	c #99FF72",
"l.	c #99FF7A",
"m.	c #9CFF7F",
"n.	c #95FF7D",
"o.	c #94FF6A",
"p.	c #71FFA0",
"q.	c #35FFD9",
"r.	c #98FFAA",
"s.	c #ACFF7C",
"t.	c #AEFF51",
"u.	c #BAFF3D",
"v.	c #A2FF20",
"w.	c #6AFF73",
"x.	c #53FFB8",
"y.	c #5DFF6D",
"z.	c #5CFF00",
"A.	c #7AFF00",
"B.	c #71FF00",
"C.	c #6FFF03",
"D.	c #8FFF54",
"E.	c #41FFDC",
"F.	c #BAFFB2",
"G.	c #C5FF8B",
"H.	c #B0FF69",
"I.	c #C7FF9A",
"J.	c #ABFF90",
"K.	c #ABFF7B",
"L.	c #C5FF89",
"M.	c #9BFF95",
"N.	c #46FFDA",
"O.	c #91FF88",
"P.	c #9BFF78",
"Q.	c #95FF7B",
"R.	c #91FF71",
"S.	c #8DFF66",
"T.	c #8CFF6F",
"U.	c #71FF9F",
"V.	c #5FFFBF",
"W.	c #9FFF7D",
"X.	c #B1FF2D",
"Y.	c #92FF12",
"Z.	c #72FF01",
"`.	c #82FF6C",
" +	c #24FFD5",
".+	c #66FF00",
"++	c #84FF00",
"@+	c #A0FF00",
"#+	c #7FFF07",
"$+	c #CBFFA4",
"%+	c #D4FFAB",
"&+	c #41FFE4",
"*+	c #B5FF7C",
"=+	c #CEFFA4",
"-+	c #C2FFAA",
";+	c #A5FF5E",
">+	c #C6FF8E",
",+	c #B3FF97",
"'+	c #98FF70",
")+	c #9DFFA0",
"!+	c #2AFFE6",
"~+	c #B7FF9C",
"{+	c #8AFF62",
"]+	c #AEFF7A",
"^+	c #9FFF64",
"/+	c #75FF2B",
"(+	c #79FF8D",
"_+	c #8BFFA4",
":+	c #63FFC9",
"<+	c #8BFF04",
"[+	c #77FF01",
"}+	c #92FF00",
"|+	c #60FF55",
"1+	c #52FF00",
"2+	c #46FFC7",
"3+	c #7CFF73",
"4+	c #62FFB6",
"5+	c #B6FF62",
"6+	c #7EFF66",
"7+	c #6DFF56",
"8+	c #B1FF30",
"9+	c #BBFF00",
"0+	c #A3FF00",
"a+	c #8EFE06",
"b+	c #72FF4C",
"c+	c #84FF52",
"d+	c #9AFF33",
"e+	c #95FF48",
"f+	c #A5FF57",
"g+	c #BAFF46",
"h+	c #83FFB7",
"i+	c #69FF99",
"j+	c #57FE14",
"k+	c #09FFBF",
"l+	c #37FFDE",
"m+	c #62FF60",
"n+	c #55FFD3",
"o+	c #61FFAE",
"p+	c #8EFF68",
"q+	c #1CFFC9",
"r+	c #06FF5F",
"s+	c #24FFE6",
"t+	c #2AFFE2",
"u+	c #0BFFE7",
"v+	c #03FFAE",
"w+	c #12FFB4",
"x+	c #25FF6B",
"y+	c #00FFB4",
"z+	c #00FFBD",
"A+	c #00FFC7",
"B+	c #00FFB6",
"C+	c #00FFC8",
"                                                                ",
"                                                                ",
"                                                                ",
"                                                                ",
"                                                                ",
"                                                                ",
"                                  .                             ",
"                                                    .           ",
"                        . +                                     ",
"                      . @ #           $         %               ",
"      $ % .           .                                         ",
"      & *     =     . - ;                   >         , ' )     ",
"      ! ~ { ] ^   /     ( _ :     < [ }   | 1 2     3 4 5 6 7   ",
"8 9 0 a b c d e f g h i j k l m n o p q r s t u v w x y z A B C ",
"9 D E F C G H I J K L M N O P Q R S T U V W X Y Z `  ...+.@.#.$.",
"9 %.&.*.=.-.;.>.,.'.).!.~.{.].^./.(._.:.<.[.}.|.1.2.3.4.5.6.C 7.",
"8.9.0.a.b.c.d.e.f.g.h.i.!.j.k.l.m.n.o.p.q.r.s.t.u.v.w.x.y.z.A.8.",
"8.B.C.D.E.F.G.H.I.J.K.L.M.N.O.P.Q.R.S.T.U.V.W.X.Y.Z.9 `. +.+++9 ",
"@+9 #+$+%+&+*+=+-+;+>+,+'+)+!+~+{+]+^+/+(+_+:+<+[+}+2 |+1+2+3+9 ",
"  #+4+5+6+7+    8+9+9 0+a+b+  c+d+  e+f+g+h+i+j+      k+        ",
"    l+        m+    n+o+      ^       p+    q+      r+          ",
"    .               s+t+u+v+  w+      x+              y+z+      ",
"                        . A+B+        C+      .                 ",
"                            + .                         .       ",
"                                        .                       ",
"                                                                ",
"                                                                ",
"                                                                ",
"                                                                ",
"                                                                ",
"                                                                ",
"                                                                "};
