/* XPM */
static char * laser3_xpm[] = {
"32 32 282 2",
"  	c #110D1A",
". 	c #00FFE9",
"+ 	c #71FF00",
"@ 	c #26FFDD",
"# 	c #30FFD6",
"$ 	c #31FFD4",
"% 	c #4AFFB8",
"& 	c #48FFBB",
"* 	c #71FF02",
"= 	c #6BFF21",
"- 	c #62FF7D",
"; 	c #71FF05",
"> 	c #70FF16",
", 	c #72FF12",
"' 	c #05FFE9",
") 	c #6FFFB9",
"! 	c #36FFC3",
"~ 	c #48FFBA",
"{ 	c #02FF58",
"] 	c #08FFB4",
"^ 	c #19FFCC",
"/ 	c #32FFC4",
"( 	c #46FF9F",
"_ 	c #A4FF00",
": 	c #43FFD0",
"< 	c #46FFC7",
"[ 	c #89FF5A",
"} 	c #B7FF41",
"| 	c #BFFF2D",
"1 	c #9EFD1A",
"2 	c #62FF85",
"3 	c #94FF48",
"4 	c #8BFF00",
"5 	c #96FF95",
"6 	c #69FFC8",
"7 	c #89FF78",
"8 	c #7BFD7A",
"9 	c #93FF4A",
"0 	c #77FF5E",
"a 	c #BAFF45",
"b 	c #86FF2F",
"c 	c #54FF5A",
"d 	c #28FFE0",
"e 	c #88FF00",
"f 	c #81FF16",
"g 	c #61FF16",
"h 	c #63FF00",
"i 	c #76FF00",
"j 	c #85FF84",
"k 	c #98FF84",
"l 	c #B1FF01",
"m 	c #3CFFDB",
"n 	c #95FF3B",
"o 	c #88FF38",
"p 	c #9CFF31",
"q 	c #B1FF6A",
"r 	c #A1FF77",
"s 	c #A8FF74",
"t 	c #9EFF79",
"u 	c #56FFD9",
"v 	c #8EFFBD",
"w 	c #C4FFA3",
"x 	c #BEFF97",
"y 	c #6CFFB8",
"z 	c #71FFB3",
"A 	c #C2FF98",
"B 	c #75FFD4",
"C 	c #9CFF97",
"D 	c #B2FF78",
"E 	c #C7FF74",
"F 	c #BEFF73",
"G 	c #60FF0D",
"H 	c #5FFF01",
"I 	c #6EFF00",
"J 	c #8AFF00",
"K 	c #62FF83",
"L 	c #5DFF00",
"M 	c #9DFF00",
"N 	c #AFFF01",
"O 	c #96FF85",
"P 	c #6DFFB6",
"Q 	c #88FF92",
"R 	c #13FFE7",
"S 	c #B3FF74",
"T 	c #ABFF77",
"U 	c #A9FF7B",
"V 	c #88FF57",
"W 	c #92FF6C",
"X 	c #A8FF7C",
"Y 	c #A2FF78",
"Z 	c #54FFD7",
"` 	c #8FFFA6",
" .	c #82FF5B",
"..	c #83FF97",
"+.	c #9AFF8A",
"@.	c #C4FF8C",
"#.	c #A3FF64",
"$.	c #52FFD9",
"%.	c #C8FF82",
"&.	c #A7FF33",
"*.	c #8AFF27",
"=.	c #6BFF0B",
"-.	c #65FF00",
";.	c #6DFF00",
">.	c #77FF6C",
",.	c #22FFD7",
"'.	c #58FF87",
").	c #9EFF01",
"!.	c #B1FF05",
"~.	c #A6FF29",
"{.	c #A9FF49",
"].	c #A2FF4D",
"^.	c #75FFC1",
"/.	c #9FFFAD",
"(.	c #56FFDE",
"_.	c #ACFF80",
":.	c #B1FF6F",
"<.	c #A8FF7B",
"[.	c #9EFF7C",
"}.	c #A0FF82",
"|.	c #ADFF88",
"1.	c #8DFF9B",
"2.	c #21FFE5",
"3.	c #69FFB4",
"4.	c #94FF7A",
"5.	c #B5FF79",
"6.	c #A6FF7D",
"7.	c #C2FF83",
"8.	c #B9FF3F",
"9.	c #60FFC9",
"0.	c #72FF15",
"a.	c #80FF0D",
"b.	c #64FF01",
"c.	c #83FF00",
"d.	c #89FF00",
"e.	c #7BFF00",
"f.	c #67FF00",
"g.	c #2DFFDC",
"h.	c #A1FF52",
"i.	c #A9FF3C",
"j.	c #B1FF5B",
"k.	c #C1FF85",
"l.	c #A2FF60",
"m.	c #BFFF7D",
"n.	c #C0FF8F",
"o.	c #A2FFA4",
"p.	c #8FFF98",
"q.	c #99FF72",
"r.	c #99FF7A",
"s.	c #9CFF7F",
"t.	c #95FF7D",
"u.	c #94FF6A",
"v.	c #71FFA0",
"w.	c #35FFD9",
"x.	c #98FFAA",
"y.	c #ACFF7C",
"z.	c #AEFF51",
"A.	c #BAFF3D",
"B.	c #A2FF20",
"C.	c #6AFF73",
"D.	c #53FFB8",
"E.	c #5DFF6D",
"F.	c #5CFF00",
"G.	c #7AFF00",
"H.	c #6FFF03",
"I.	c #8FFF54",
"J.	c #41FFDC",
"K.	c #BAFFB2",
"L.	c #C5FF8B",
"M.	c #B0FF69",
"N.	c #C7FF9A",
"O.	c #ABFF90",
"P.	c #ABFF7B",
"Q.	c #C5FF89",
"R.	c #9BFF95",
"S.	c #46FFDA",
"T.	c #91FF88",
"U.	c #9BFF78",
"V.	c #95FF7B",
"W.	c #91FF71",
"X.	c #8DFF66",
"Y.	c #8CFF6F",
"Z.	c #71FF9F",
"`.	c #5FFFBF",
" +	c #9FFF7D",
".+	c #B1FF2D",
"++	c #92FF12",
"@+	c #72FF01",
"#+	c #82FF6C",
"$+	c #24FFD5",
"%+	c #66FF00",
"&+	c #84FF00",
"*+	c #8AFF84",
"=+	c #7CFF3D",
"-+	c #C6FFA9",
";+	c #D4FFAB",
">+	c #41FFE4",
",+	c #B5FF7C",
"'+	c #CEFFA4",
")+	c #C2FFAA",
"!+	c #A5FF5E",
"~+	c #C6FF8E",
"{+	c #B3FF97",
"]+	c #98FF70",
"^+	c #9DFFA0",
"/+	c #2AFFE6",
"(+	c #B7FF9C",
"_+	c #8AFF62",
":+	c #AEFF7A",
"<+	c #9FFF64",
"[+	c #75FF2A",
"}+	c #77FF7D",
"|+	c #8BFFA4",
"1+	c #63FFC9",
"2+	c #8BFF04",
"3+	c #77FF01",
"4+	c #92FF00",
"5+	c #9AFF00",
"6+	c #60FF55",
"7+	c #52FF00",
"8+	c #76FF85",
"9+	c #89FF1B",
"0+	c #89FEA7",
"a+	c #7FFF07",
"b+	c #54FFC5",
"c+	c #8EFFAC",
"d+	c #59FFBA",
"e+	c #6DFF56",
"f+	c #8CFF1A",
"g+	c #BBFF00",
"h+	c #9DFF48",
"i+	c #89FE45",
"j+	c #72FF4C",
"k+	c #83FF58",
"l+	c #8FFF6B",
"m+	c #8EFF3F",
"n+	c #86FF33",
"o+	c #89FF91",
"p+	c #78FFC1",
"q+	c #69FF99",
"r+	c #57FE14",
"s+	c #09FFBF",
"t+	c #2BFFE4",
"u+	c #31FFE0",
"v+	c #51FFDA",
"w+	c #34FFCC",
"x+	c #3DFFB8",
"y+	c #62FF60",
"z+	c #76FF3C",
"A+	c #74FF92",
"B+	c #55FFD3",
"C+	c #54FFC0",
"D+	c #4FFF81",
"E+	c #6EFF94",
"F+	c #68FFC9",
"G+	c #1CFFC9",
"H+	c #06FF5F",
"I+	c #0DFFE8",
"J+	c #00FFAE",
"K+	c #67FF2D",
"L+	c #24FFE6",
"M+	c #1CFFE6",
"N+	c #05FFE8",
"O+	c #03FFAE",
"P+	c #12FFB4",
"Q+	c #04FFE9",
"R+	c #1FFFE7",
"S+	c #1AFFB0",
"T+	c #6CFF22",
"U+	c #5AFF8C",
"V+	c #00FFE7",
"W+	c #00FFB4",
"X+	c #00FFC9",
"Y+	c #00FFD6",
"Z+	c #00FFCD",
"`+	c #00FFB6",
" @	c #00FFDF",
".@	c #3AFFCC",
"+@	c #62FF7E",
"@@	c #6EFF38",
"#@	c #70FF23",
"$@	c #71FF07",
"                                                                ",
"                                                                ",
"                                                                ",
"                                            .                   ",
"                                                                ",
"                                .                               ",
"                              .                                 ",
"                                                      +   @     ",
"          +   +                                                 ",
".       #       $                 +         %                   ",
"      +       &   +       *     +       + +               . .   ",
"    =         - + ; >                     ,   '           ) !   ",
"  ~   { ] ^ / ( _ : <   [ } | 1   2 3 4   5 6 7 8   9 0 a b c   ",
"d e f g h i j k l m n o p q r s t u v w x y z A B C D E F G H I ",
"J : K L I M N O P Q R S T U V W X Y Z `  ...+.@.#.$.%.&.*.=.-.;.",
"J >.,.'.).!.~.{.].^./.(._.:.<.[.}.|.1.2.3.4.5.6.7.8.9.0.a.b.I c.",
"d.e.f.g.h.i.j.k.l.m.n.o.(.p.q.r.s.t.u.v.w.x.y.z.A.B.C.D.E.F.G.d.",
"d.+ H.I.J.K.L.M.N.O.P.Q.R.S.T.U.V.W.X.Y.Z.`. +.+++@+J #+$+%+&+J ",
"*+J =+-+;+>+,+'+)+!+~+{+]+^+/+(+_+:+<+[+}+|+1+2+3+4+5+6+7+< 8+9+",
"0+a+b+c+d+e+    f+g+J h+i+j+  k+l+  m+n+o+p+q+r+      s+        ",
"t+  u+v+w+x+  y+z+A+B+C+      D+      E+F+  G+      H+    .     ",
"    . I+J+        K+L+M+N+O+  P+  Q+R+S+T+  U+  V+    W+X+      ",
"  . . . Y+              . Z+`+            +     .        @      ",
"                                  .@+@      @@  .               ",
"      .                 #@            .     $@+                 ",
"                              + +             +                 ",
"                                    +                           ",
"                                                                ",
"                                                                ",
"                                                                ",
"                                                                ",
"                                                                "};
