/* XPM */
static char * Laser_xpm[] = {
"32 32 227 2",
"  	c #110D1A",
". 	c #00FF6B",
"+ 	c #01FF63",
"@ 	c #37FF66",
"# 	c #44FF6A",
"$ 	c #54FF69",
"% 	c #BAFF5E",
"& 	c #A3FF41",
"* 	c #02FF58",
"= 	c #36FF26",
"- 	c #55FF63",
"; 	c #89FF5A",
"> 	c #B7FF41",
", 	c #BFFF2D",
"' 	c #73FF00",
") 	c #A1FF00",
"! 	c #A6FF00",
"~ 	c #B8FF00",
"{ 	c #B7FF00",
"] 	c #9AFF00",
"^ 	c #93FF4A",
"/ 	c #77FF5E",
"( 	c #BAFF45",
"_ 	c #87FF23",
": 	c #5AFF08",
"< 	c #28FFE0",
"[ 	c #8AFF00",
"} 	c #81FF16",
"| 	c #61FF16",
"1 	c #63FF00",
"2 	c #76FF00",
"3 	c #9BFF00",
"4 	c #B1FF00",
"5 	c #B1FF01",
"6 	c #41FFD8",
"7 	c #95FF3B",
"8 	c #88FF38",
"9 	c #9CFF31",
"0 	c #B1FF6A",
"a 	c #A1FF77",
"b 	c #A8FF74",
"c 	c #9EFF79",
"d 	c #56FFD9",
"e 	c #8EFFBD",
"f 	c #C4FFA3",
"g 	c #BEFF97",
"h 	c #92FF70",
"i 	c #93FF70",
"j 	c #C2FF98",
"k 	c #75FFD4",
"l 	c #9CFF97",
"m 	c #B2FF78",
"n 	c #C7FF74",
"o 	c #BEFF73",
"p 	c #60FF0D",
"q 	c #5FFF01",
"r 	c #6EFF00",
"s 	c #43FFD0",
"t 	c #62FF83",
"u 	c #5DFF00",
"v 	c #9DFF00",
"w 	c #AFFF01",
"x 	c #AEFF0D",
"y 	c #A0FF29",
"z 	c #88FF92",
"A 	c #13FFE7",
"B 	c #B3FF74",
"C 	c #ABFF77",
"D 	c #A9FF7B",
"E 	c #88FF57",
"F 	c #92FF6C",
"G 	c #A8FF7C",
"H 	c #A2FF78",
"I 	c #54FFD7",
"J 	c #8FFFA6",
"K 	c #82FF5B",
"L 	c #9EFF82",
"M 	c #C4FF8C",
"N 	c #A3FF64",
"O 	c #52FFD9",
"P 	c #C8FF82",
"Q 	c #A7FF33",
"R 	c #8AFF27",
"S 	c #6BFF0B",
"T 	c #65FF00",
"U 	c #6DFF00",
"V 	c #77FF6C",
"W 	c #22FFD7",
"X 	c #58FF87",
"Y 	c #9EFF01",
"Z 	c #B1FF05",
"` 	c #A6FF29",
" .	c #A9FF49",
"..	c #A2FF4D",
"+.	c #ABFF73",
"@.	c #9FFFAD",
"#.	c #56FFDE",
"$.	c #ACFF80",
"%.	c #B1FF6F",
"&.	c #A8FF7B",
"*.	c #9EFF7C",
"=.	c #A0FF82",
"-.	c #ADFF88",
";.	c #8DFF9B",
">.	c #21FFE5",
",.	c #69FFB4",
"'.	c #94FF7A",
").	c #B5FF79",
"!.	c #A6FF7D",
"~.	c #C2FF83",
"{.	c #B9FF3F",
"].	c #60FFC9",
"^.	c #72FF15",
"/.	c #80FF0D",
"(.	c #64FF01",
"_.	c #83FF00",
":.	c #89FF00",
"<.	c #7BFF00",
"[.	c #67FF00",
"}.	c #2DFFDC",
"|.	c #A1FF52",
"1.	c #A9FF3C",
"2.	c #B1FF5B",
"3.	c #C1FF85",
"4.	c #A2FF60",
"5.	c #BFFF7D",
"6.	c #C0FF8F",
"7.	c #A2FFA4",
"8.	c #8FFF98",
"9.	c #99FF72",
"0.	c #99FF7A",
"a.	c #9CFF7F",
"b.	c #95FF7D",
"c.	c #94FF6A",
"d.	c #71FFA0",
"e.	c #35FFD9",
"f.	c #98FFAA",
"g.	c #ACFF7C",
"h.	c #AEFF51",
"i.	c #BAFF3D",
"j.	c #A2FF20",
"k.	c #6AFF73",
"l.	c #53FFB8",
"m.	c #5DFF6D",
"n.	c #5CFF00",
"o.	c #7AFF00",
"p.	c #71FF00",
"q.	c #6FFF03",
"r.	c #8FFF54",
"s.	c #41FFDC",
"t.	c #BAFFB2",
"u.	c #C5FF8B",
"v.	c #B0FF69",
"w.	c #C7FF9A",
"x.	c #ABFF90",
"y.	c #ABFF7B",
"z.	c #C5FF89",
"A.	c #9BFF95",
"B.	c #46FFDA",
"C.	c #91FF88",
"D.	c #9BFF78",
"E.	c #95FF7B",
"F.	c #91FF71",
"G.	c #8DFF66",
"H.	c #8CFF6F",
"I.	c #71FF9F",
"J.	c #5FFFBF",
"K.	c #9FFF7D",
"L.	c #B1FF2D",
"M.	c #92FF12",
"N.	c #72FF01",
"O.	c #82FF6C",
"P.	c #24FFD5",
"Q.	c #66FF00",
"R.	c #84FF00",
"S.	c #A0FF00",
"T.	c #7FFF07",
"U.	c #CBFFA4",
"V.	c #D4FFAB",
"W.	c #41FFE4",
"X.	c #B5FF7C",
"Y.	c #CEFFA4",
"Z.	c #C2FFAA",
"`.	c #A5FF5E",
" +	c #C6FF8E",
".+	c #B3FF97",
"++	c #98FF70",
"@+	c #9DFFA0",
"#+	c #2AFFE6",
"$+	c #B7FF9C",
"%+	c #8AFF62",
"&+	c #AEFF7A",
"*+	c #9FFF64",
"=+	c #75FF2B",
"-+	c #8DFF41",
";+	c #A2FF7B",
">+	c #63FFC9",
",+	c #8BFF04",
"'+	c #77FF01",
")+	c #92FF00",
"!+	c #52FF00",
"~+	c #46FFC7",
"{+	c #7CFF73",
"]+	c #91FF1A",
"^+	c #B6FF62",
"/+	c #7EFF66",
"(+	c #6DFF56",
"_+	c #B1FF30",
":+	c #BBFF00",
"<+	c #A3FF00",
"[+	c #8EFE06",
"}+	c #72FF4C",
"|+	c #84FF52",
"1+	c #9AFF33",
"2+	c #95FF48",
"3+	c #A5FF57",
"4+	c #BAFF46",
"5+	c #C1FF26",
"6+	c #71FF85",
"7+	c #57FE14",
"8+	c #62FF60",
"9+	c #88FF00",
"0+	c #8EFF68",
"a+	c #39FF00",
"b+	c #06FF5F",
"c+	c #05FF6B",
"d+	c #25FF6B",
"                                                                ",
"                                                                ",
"                                                                ",
"                                                                ",
"                                                                ",
"                                                                ",
"            .             .                                     ",
"                                                                ",
"        .                                                       ",
"                                      .                   .     ",
"      .                                                         ",
"      +       @         #                             $ % &     ",
"      *   =   -         ; > ,     ' ) !   ~ { ]     ^ / ( _ :   ",
"< [ } | 1 2 3 4 5 6 7 8 9 0 a b c d e f g h i j k l m n o p q r ",
"[ s t u r v w x y z A B C D E F G H I J K i L M N O P Q R S T U ",
"[ V W X Y Z `  ...+.@.#.$.%.&.*.=.-.;.>.,.'.).!.~.{.].^./.(.r _.",
":.<.[.}.|.1.2.3.4.5.6.7.#.8.9.0.a.b.c.d.e.f.g.h.i.j.k.l.m.n.o.:.",
":.p.q.r.s.t.u.v.w.x.y.z.A.B.C.D.E.F.G.H.I.J.K.L.M.N.[ O.P.Q.R.[ ",
"S.[ T.U.V.W.X.Y.Z.`. +.+++@+#+$+%+&+*+=+-+;+>+,+'+)+] Q.!+~+{+[ ",
"  T.]+^+/+(+    _+:+[ <+[+}+  |+1+  2+3+4+5+6+7+                ",
"              8+      9+      -       0+    a+      b+          ",
"                          c+          d+                        ",
"                                                                ",
"                            .         .                         ",
"                          . .     . . .     .                   ",
"                .                                               ",
"                                                                ",
"                                                                ",
"                                                                ",
"                                                                ",
"                                                                ",
"                                                                "};
