/* XPM */
static char * laser2_xpm[] = {
"32 32 254 2",
"  	c #110D1A",
". 	c #6DFF44",
"+ 	c #00FFE9",
"@ 	c #71FF00",
"# 	c #48FFBB",
"$ 	c #71FF02",
"% 	c #62FF7D",
"& 	c #05FFE9",
"* 	c #A3FF41",
"= 	c #02FF58",
"- 	c #08FFB4",
"; 	c #19FFCC",
"> 	c #32FFC4",
", 	c #46FF9F",
"' 	c #A4FF00",
") 	c #43FFD0",
"! 	c #46FFC7",
"~ 	c #89FF5A",
"{ 	c #B7FF41",
"] 	c #BFFF2D",
"^ 	c #62FF85",
"/ 	c #9AFF50",
"( 	c #A6FF00",
"_ 	c #96FF95",
": 	c #69FFC8",
"< 	c #89FF78",
"[ 	c #7BFD7A",
"} 	c #93FF4A",
"| 	c #77FF5E",
"1 	c #BAFF45",
"2 	c #87FF23",
"3 	c #5AFF08",
"4 	c #28FFE0",
"5 	c #8AFF00",
"6 	c #81FF16",
"7 	c #61FF16",
"8 	c #63FF00",
"9 	c #76FF00",
"0 	c #85FF84",
"a 	c #98FF84",
"b 	c #B1FF01",
"c 	c #3CFFDB",
"d 	c #95FF3B",
"e 	c #88FF38",
"f 	c #9CFF31",
"g 	c #B1FF6A",
"h 	c #A1FF77",
"i 	c #A8FF74",
"j 	c #9EFF79",
"k 	c #56FFD9",
"l 	c #8EFFBD",
"m 	c #C4FFA3",
"n 	c #BEFF97",
"o 	c #6CFFB8",
"p 	c #71FFB3",
"q 	c #C2FF98",
"r 	c #75FFD4",
"s 	c #9CFF97",
"t 	c #B2FF78",
"u 	c #C7FF74",
"v 	c #BEFF73",
"w 	c #60FF0D",
"x 	c #5FFF01",
"y 	c #6EFF00",
"z 	c #62FF83",
"A 	c #5DFF00",
"B 	c #9DFF00",
"C 	c #AFFF01",
"D 	c #96FF85",
"E 	c #6DFFB6",
"F 	c #88FF92",
"G 	c #13FFE7",
"H 	c #B3FF74",
"I 	c #ABFF77",
"J 	c #A9FF7B",
"K 	c #88FF57",
"L 	c #92FF6C",
"M 	c #A8FF7C",
"N 	c #A2FF78",
"O 	c #54FFD7",
"P 	c #8FFFA6",
"Q 	c #82FF5B",
"R 	c #83FF97",
"S 	c #9AFF8A",
"T 	c #C4FF8C",
"U 	c #A3FF64",
"V 	c #52FFD9",
"W 	c #C8FF82",
"X 	c #A7FF33",
"Y 	c #8AFF27",
"Z 	c #6BFF0B",
"` 	c #65FF00",
" .	c #6DFF00",
"..	c #77FF6C",
"+.	c #22FFD7",
"@.	c #58FF87",
"#.	c #9EFF01",
"$.	c #B1FF05",
"%.	c #A6FF29",
"&.	c #A9FF49",
"*.	c #A2FF4D",
"=.	c #75FFC1",
"-.	c #9FFFAD",
";.	c #56FFDE",
">.	c #ACFF80",
",.	c #B1FF6F",
"'.	c #A8FF7B",
").	c #9EFF7C",
"!.	c #A0FF82",
"~.	c #ADFF88",
"{.	c #8DFF9B",
"].	c #21FFE5",
"^.	c #69FFB4",
"/.	c #94FF7A",
"(.	c #B5FF79",
"_.	c #A6FF7D",
":.	c #C2FF83",
"<.	c #B9FF3F",
"[.	c #60FFC9",
"}.	c #72FF15",
"|.	c #80FF0D",
"1.	c #64FF01",
"2.	c #83FF00",
"3.	c #89FF00",
"4.	c #7BFF00",
"5.	c #67FF00",
"6.	c #2DFFDC",
"7.	c #A1FF52",
"8.	c #A9FF3C",
"9.	c #B1FF5B",
"0.	c #C1FF85",
"a.	c #A2FF60",
"b.	c #BFFF7D",
"c.	c #C0FF8F",
"d.	c #A2FFA4",
"e.	c #8FFF98",
"f.	c #99FF72",
"g.	c #99FF7A",
"h.	c #9CFF7F",
"i.	c #95FF7D",
"j.	c #94FF6A",
"k.	c #71FFA0",
"l.	c #35FFD9",
"m.	c #98FFAA",
"n.	c #ACFF7C",
"o.	c #AEFF51",
"p.	c #BAFF3D",
"q.	c #A2FF20",
"r.	c #6AFF73",
"s.	c #53FFB8",
"t.	c #5DFF6D",
"u.	c #5CFF00",
"v.	c #7AFF00",
"w.	c #6FFF03",
"x.	c #8FFF54",
"y.	c #41FFDC",
"z.	c #BAFFB2",
"A.	c #C5FF8B",
"B.	c #B0FF69",
"C.	c #C7FF9A",
"D.	c #ABFF90",
"E.	c #ABFF7B",
"F.	c #C5FF89",
"G.	c #9BFF95",
"H.	c #46FFDA",
"I.	c #91FF88",
"J.	c #9BFF78",
"K.	c #95FF7B",
"L.	c #91FF71",
"M.	c #8DFF66",
"N.	c #8CFF6F",
"O.	c #71FF9F",
"P.	c #5FFFBF",
"Q.	c #9FFF7D",
"R.	c #B1FF2D",
"S.	c #92FF12",
"T.	c #72FF01",
"U.	c #82FF6C",
"V.	c #24FFD5",
"W.	c #66FF00",
"X.	c #84FF00",
"Y.	c #A0FF00",
"Z.	c #7FFF07",
"`.	c #CBFFA4",
" +	c #D4FFAB",
".+	c #41FFE4",
"++	c #B5FF7C",
"@+	c #CEFFA4",
"#+	c #C2FFAA",
"$+	c #A5FF5E",
"%+	c #C6FF8E",
"&+	c #B3FF97",
"*+	c #98FF70",
"=+	c #9DFFA0",
"-+	c #2AFFE6",
";+	c #B7FF9C",
">+	c #8AFF62",
",+	c #AEFF7A",
"'+	c #9FFF64",
")+	c #75FF2A",
"!+	c #77FF7D",
"~+	c #8BFFA4",
"{+	c #63FFC9",
"]+	c #8BFF04",
"^+	c #77FF01",
"/+	c #92FF00",
"(+	c #9AFF00",
"_+	c #60FF55",
":+	c #52FF00",
"<+	c #7CFF73",
"[+	c #62FFB6",
"}+	c #A8FF86",
"|+	c #59FFBA",
"1+	c #6DFF56",
"2+	c #B1FF30",
"3+	c #BBFF00",
"4+	c #9DFF48",
"5+	c #89FE45",
"6+	c #72FF4C",
"7+	c #83FF58",
"8+	c #8FFF6B",
"9+	c #90FF42",
"0+	c #8CFF3B",
"a+	c #89FF91",
"b+	c #78FFC1",
"c+	c #69FF99",
"d+	c #57FE14",
"e+	c #09FFBF",
"f+	c #37FFDE",
"g+	c #34FFCC",
"h+	c #3DFFB8",
"i+	c #62FF60",
"j+	c #55FFD3",
"k+	c #54FFC0",
"l+	c #4FFF81",
"m+	c #6DFFAF",
"n+	c #68FFC9",
"o+	c #1CFFC9",
"p+	c #06FF5F",
"q+	c #00FFAE",
"r+	c #24FFE6",
"s+	c #1CFFE6",
"t+	c #05FFE8",
"u+	c #03FFAE",
"v+	c #12FFB4",
"w+	c #06FFE9",
"x+	c #1AFFB0",
"y+	c #00FFB4",
"z+	c #00FFBD",
"A+	c #00FFD2",
"B+	c #00FFCD",
"C+	c #00FFB6",
"D+	c #3AFFCC",
"E+	c #62FF7E",
"                                                                ",
"                                                                ",
"                                                                ",
"                                                                ",
"                                                                ",
"                                                                ",
"                                                .               ",
"                          +                                     ",
"                                    @                           ",
"                +     @ @                   +                   ",
"              #           $                                     ",
"              %                               &           *     ",
"      = - ; > , ' ) !   ~ { ]     ^ / (   _ : < [   } | 1 2 3   ",
"4 5 6 7 8 9 0 a b c d e f g h i j k l m n o p q r s t u v w x y ",
"5 ) z A y B C D E F G H I J K L M N O P Q R S T U V W X Y Z `  .",
"5 ..+.@.#.$.%.&.*.=.-.;.>.,.'.).!.~.{.].^./.(._.:.<.[.}.|.1.y 2.",
"3.4.5.6.7.8.9.0.a.b.c.d.;.e.f.g.h.i.j.k.l.m.n.o.p.q.r.s.t.u.v.3.",
"3.@ w.x.y.z.A.B.C.D.E.F.G.H.I.J.K.L.M.N.O.P.Q.R.S.T.5 U.V.W.X.5 ",
"Y.5 Z.`. +.+++@+#+$+%+&+*+=+-+;+>+,+'+)+!+~+{+]+^+/+(+_+:+! <+5 ",
"  Z.[+}+|+1+    2+3+5 4+5+6+  7+8+  9+0+a+b+c+d+      e+        ",
"    f+  g+h+  i+    j+k+      l+      m+n+  o+      p+          ",
"    +   q+          r+s+t+u+  v+  w+  x+              y+z+      ",
"        A+              + B+C+                                  ",
"                                  D+E+                          ",
"            +           +                                       ",
"                    +                               @           ",
"                                                                ",
"                                                                ",
"                                                                ",
"                                                                ",
"                                                                ",
"                                                                "};
