/* XPM */
static char * planet8_xpm[] = {
"32 32 7 1",
" 	c #110D1A",
".	c #74CB51",
"+	c #902448",
"@	c #D7369C",
"#	c #481214",
"$	c #1B4430",
"%	c #368840",
"                                ",
"           ..+++@@++++          ",
"         @@@@+@@@+++##+#        ",
"       ++@@@@@+@@.+++##+##      ",
"      .@@@.@@@@@...++++++##     ",
"     ......@@.@@+...++++#+#$    ",
"    ..@....@@.@@@...+++++++$#   ",
"   @@@......@@@@@...++%%+++$##  ",
"   @@......@@@@@@...+++%%++$##  ",
"  +@@@@.@@@@@@@@.....++%+$++$## ",
"  @@@@@@@@.@.@@..@...++%+%+#### ",
" #.@.@@@@@@@@@@......++%%%$#####",
" ..@..@@@@@##@@@@@@+++@+%$######",
" .@@@@@@@#+++++@@@++.+++%%$#####",
" +@@@@@@#++++++@@....++%+$+#####",
" ++@@@@@++++++++@...%++++$######",
" +.+@.@@++++++++@...%+++$#+####$",
" +.@@@+@++++++.++..%++++$$#####$",
" %%@@+++++.+...++...+++$+$+#$$#$",
" %%@+@+++...+...++%%%+$+#+$$$$#$",
" %+.%++.++.+..%%%++%++$$$#$###$#",
" +%%.++.+++%..+%%+++++$$$$$$##$$",
"  +%%++%+++%%%%%++$#+#$$$$$$$$# ",
"  +%%%++#+++%%%%++####$$$$$$### ",
"   ##%%%+#++%%$++#####$$#$$###  ",
"   ##+%##+#++$$+###########$##  ",
"    ##$$#$+#+#$$$$$$##$#$$###   ",
"     +#+#$##$$%#$$$%##$$$$#$    ",
"      $#$$##$###$$$##$$#$$$     ",
"       ##$#########$#$#$$#      ",
"         ####$######$$$$        ",
"           #########$$          "};
