/* XPM */
static char * planet2_xpm[] = {
"32 32 7 1",
" 	c #110D1A",
".	c #8F4D57",
"+	c #52333F",
"@	c #FF8933",
"#	c #3D2936",
"$	c #E64539",
"%	c #AD2F45",
"                                ",
"           .+.+++.++++          ",
"         +@@.+@+.++++#++        ",
"       ..@@..@@@..++#+++##      ",
"      ...@...@@@@++++++#+##     ",
"     ........@@...+@$$$+####    ",
"    @..@......@@.@.+@+$#+####   ",
"   +@........@@...+.++++#+####  ",
"   .@@.@@@..#....+++.++#+#####  ",
"  +.@@.@@@........+#++$+####### ",
"  @.@..@@@...@@@.+@+++$$+#+#### ",
" .@..++@@@.......@@@+.$++%#+####",
" @..#+@@@@.........+.++++$%#####",
" .@.#++@@@........++++++$$#+####",
" +@...@@@@@..@@....++++$+%+#####",
" @@..@@..@@@@@@@@@++++++#%%####%",
" @@@.@@...@@@@@@@++$@++++#%####%",
" @@+..@...@@@@@@@+++#+++##%###%%",
" +++++.+..@@@@@@@++#++$%%#######",
" ++++++.+.@@@@@.+++$$+%%%#######",
" #++++++.+@@@@@$+++$$$%%%#######",
" $+++++.+.+@@$@+#+$$+$%%#####%##",
"  ++++++$++++$@++$$$+%%######## ",
"  $++$++$+++$$@$#+%%%%%##%%###% ",
"   #+$+#@$$$$@$$$#+%%%%%%%%#%#  ",
"   #++%$$$$$$$$$$%#%%%#%%%%###  ",
"    ####%%$#%$%$$$%####%%%###   ",
"     ####$$%%%$$%%%%#%#%%###    ",
"      %%%#%##%$%#####%#####     ",
"       %$%#%%#####%#%%#%#%      ",
"         ##%%%%%%%%%%%##        ",
"           ##%#######%          "};
