/* XPM */
static char * 3473964531_xpm[] = {
"32 32 6 1",
" 	c None",
".	c #E54438",
"+	c #AC2F44",
"@	c #51323E",
"#	c #FF8933",
"$	c #3D2836",
"                                ",
"           .......++++          ",
"         .............+@        ",
"       ...#.#.#........+++      ",
"      .#####.#.#.......+++@     ",
"     .#####.#.#...#....+++@@    ",
"    .#####.......#....+++++@@   ",
"   +.####.......#......+++.+@$  ",
"   +.###.....#.#.#.......++.@@  ",
"  +..##.......#.#..........++@+ ",
"  +.###...................++@@@ ",
" @+.###..................+.++@@+",
" ++..#..................++++@@@+",
" +..............#.......+++++$@@",
" ++......................+++@@$@",
" +++............###......+++@$$@",
" ++++............#####.....+@$$@",
" +++++.+.........####.....+@@$$@",
" +@++++++...+....####...++++@$$@",
" +++++++++++.+....#.....+++@@$$@",
" ++++++++++++++.........++++@@$+",
" @++++++++++++++........+++@@$$.",
"  +++++++++++++++.+.+++.++@@$@$ ",
"  @+++++++++++++++.++++++++@$$$ ",
"   @++++@+@+@++++++++++++++@$$  ",
"   $+++@@@@@@@+++++++++++@@$$$  ",
"    $+++@@@@@@++++++++++@@$$$   ",
"     @+++++@@@+++++++++$$$$$    ",
"      $@+++++++..+++++$$$$$     ",
"       $$@@@++.....++@$$$$      ",
"         $$$$$$@+..+$$$$        ",
"           $$$$@++++@$          "};
