/* XPM */
static char *_2af198d13604788989de39e54ee23fcNBNLFM4UbT2Q0naw[] = {
/* columns rows colors chars-per-pixel */
"32 32 7 1 ",
"  c None",
". c #21181B",
"X c #3B2027",
"o c #7D3833",
"O c #AB5130",
"+ c #CF752B",
"@ c #F0B541",
/* pixels */
"                                ",
"           @@@@@@OOOOO          ",
"         X@X+X@@@@OOOOOO        ",
"       @@+X@@X@@@@+OOOOOOO      ",
"      @@@XXXX+@@@+@OOOXOOOO     ",
"     XXX+@@@+@@@+XXXXXOOOOOO    ",
"    XXX+@@@@@@@+XXXXXOOOOOOOO   ",
"   XX+@@@@@X++XXXXXXOOOOOOOOOo  ",
"   XX@@@@+@++XXXXXXXXOOOOOOOOo  ",
"  +X@@@@@@@@@XXXXXXXXOOOOOOOooo ",
"  @X@@@@@+XXXXXXXXXXXOOOOOOOooo ",
" @XX@+@@+XXXXXXXXXXXXOOOOOOOoooo",
" @@+@+XXXXXXXXXXXXXXOOOOOOOOoooo",
" @@+@+XXXXXXXXXXXXXOOOOOOXXOoooo",
" @@@@X@XXXXXXXXXX@OOOXOOXXXO..oo",
" @@@@@@@+++@+XXX+OOOXXXXXXXo.o.o",
" O@+@@@@@@@@@@XXXXXXXXXXXX...ooo",
" O+@X@@@@@@@O@XXOOXXXXXXXXO...oo",
" OOO+++@@@OOOXOOOOOXXOOOXOO...oo",
" OOOOOO+OOOOXOXXXOXXOOOOOO...oo.",
" OOOOOOOOOOOXOXXOOOOOXOO....oooo",
" OOOOOOOOOOOOOOOXOOOXXX....ooo.o",
"  OOOOOOOOOOOOOOOOOOX......oooo ",
"  OOOOOOOOOOOOOOOOOX......ooo.o ",
"   OOOOOOOOOOOOOOOO......ooo.o  ",
"   OOXOOOOOOOOOOOOOO...oooo..o  ",
"    OOOOOOOOOOOOOOoooooooo...   ",
"     OOOOOOOOOOOOoooooo.....    ",
"      O.O..OOOO.oooooo...oo     ",
"       o.O..ooooooooo...oo      ",
"         o......oooooooo        ",
"           oo...oooo.o          "
};
