/* XPM */
static char *_5ed81295c4b4cfe8569c2476682a0b31xrsmhRjCcqwYFJw[] = {
/* columns rows colors chars-per-pixel */
"32 32 7 1 ",
"  c None",
". c #3D2936",
"X c #52333F",
"o c #E64539",
"O c #AD2F45",
"+ c #8F4D57",
"@ c #FF8933",
/* pixels */
"                                ",
"           +X+X+XXXXXX          ",
"         ++++++X+XXX...X        ",
"       X++++++++++XXXXXX.X      ",
"      X++++++++++@@@ooooO.X     ",
"     +++++++++++@@@@@@oooO..    ",
"    +++++++++@@++@@@@@oooo...   ",
"   +++++++++@@@+X+@@@@oooo....  ",
"   ++++++++@@@@++@@@@@ooooO...  ",
"  +++++++++@@@@@@@@@@XXoooo.... ",
"  ++++++++X@@@@@@@@@@@Xoooo.... ",
" ++++++@+XX@@@@@@@@@@ooXooo.....",
" ++++++@+XX@@@@@@@@@@XXXX.O.....",
" ++++++@@+@@@@@@XX@@XXXX.X......",
" @+X++@@@@@@@@@.XXXXXXX.X.......",
" +++X+@@@@@@@@+++XX+XXXX........",
" X+X+@@@@@@@@@+++++XXXX.XO.....O",
" +X+X@@@@@@@X+X+XXXXXX.XoO.....O",
" XXX@@@@@X+X+X+XXXXXX...OO.....O",
" XX@@@@@@+XXX+XXXXoo.X..OOO....O",
" Xo@@@@@XXXXXXXXXoooooOOOOO....O",
" Xoo@oXXXXXXXXXXXoooooOOOOO...O.",
"  ooooXXXXXXX.XXXoooOOOOOOO...O ",
"  Oo.XXXXXXXXX.X.oOOOOOOOOO.... ",
"   ...X.X.XXX.oooOOOOOOOOOO..O  ",
"   ....XOX.OoooooOOOOOOOO....O  ",
"    ..X.O.XOoOOO............O   ",
"     X.X...OOOOO.......O...O    ",
"      ....OOOOOO.........OO     ",
"       ..O.O...OOOOO......      ",
"         ...OOOOOOOOO..O        ",
"           OOOOO.OOO.O          "
};
