/* XPM */
static char * planet5_xpm[] = {
"32 32 7 1",
" 	c #110D1A",
".	c #D3AD1E",
"+	c #281AB4",
"@	c #391178",
"#	c #2C093C",
"$	c #758D14",
"%	c #23460A",
"                                ",
"           ..+++@#@@#@          ",
"         @+++++++@@@$#@@        ",
"       +..++++++@+@@@@#@##      ",
"      ..@+...++++@+@@@@@@##     ",
"     +.++.++..++++..$@@@####    ",
"    ++....+++.+++++@+@@@$#%#%   ",
"   +++.+++++++++++++@@@@##%%##  ",
"   .+..++++++++++@+@@$@@@##%##  ",
"  .+....+++......+@+@@@@@@####% ",
"  ++.....++......+++@@@@@#%#### ",
" .+......+.......+++@@@@@@%%###%",
" .+..+............+@@@@@@######%",
" .@+++...++++....+@@@@@@@@######",
" @+++++.+++++.+++@@@@@@$@#######",
" ..++.+.++++++++.+@@@$$$@#######",
" ..@+.+..++++++.+.@@@$$$@#######",
" +.+@+@.@+++++@.@+@@@$$%%#######",
" @+.+@+.@@+++@@@@@@@$$$%%%##%##%",
" @$..@@@...+@@@@@@$$$$#%%%%%%##%",
" $.$..@@....+.$@$$$$$#@##%%%%##%",
" $$@$.$+$...@@$$$$$@######%%%###",
"  $$$$$@$.$..@$$$$$%@%%##%%%%%% ",
"  @$@$$@$...$@$$$$%%#####%%%%%# ",
"   $@#@@@$$$@#$$%$%%%#%#%%%%%%  ",
"   @#$$%%$$$#@%%%%%%%#%%%%%%%%  ",
"    ##%%%$$$@#@%#%%%#%%%%%%%%   ",
"     %%$%%$%#@#%%%%%%#%%%%%#    ",
"      #%#%####@##%%%%%#####     ",
"       #%#########%%%%###%      ",
"         #%%#%####%%%%%#        ",
"           ##########%          "};
