/* XPM */
static char * 1707222030_xpm[] = {
"32 32 6 1",
" 	c None",
".	c #E54438",
"+	c #AC2F44",
"@	c #FF8933",
"#	c #51323E",
"$	c #3D2836",
"                                ",
"           ..........+          ",
"         ....@......++++        ",
"       +...............+#$      ",
"      .....@.@..........++#     ",
"     ....@@@@.@.@........+++    ",
"    .@..@@@@@@.@.@........+++   ",
"   .....@@@.@.@.@..........+++  ",
"   ......@.@.@..........++++++  ",
"  .+......@..............++++#+ ",
"  +........@..............++++# ",
" +.+......@.@......+.....+++++#+",
" +.......@.@@.....+.+....+++++##",
" +......@.@@@......+++...++++###",
" +.......@@@@@....+++++.+++++#$$",
" +........@@@@@...++++++.++++##$",
" ........@@@@@....+++++++++++##$",
" +........@@@@@...+++++++++++#$$",
" +..+++....@@@....+++++++++++#$$",
" +.++++...@@@....+++++++++.++$$$",
" ++++++.+..@@.....++++++++++#$$$",
" $+++++..........++++++++++#$$$$",
"  +++++.........+++++++++++#$$$ ",
"  #+++++...+++.++++++#+++++$$$$ ",
"   #+++.+..++.++++++#+#+++#$$$  ",
"   $#+++.+.++++++########$$$$$  ",
"    $#+++.+++++++###$#$$$$$$$   ",
"     $+++++#+++#+######$$$$$    ",
"      $##########+++##$$$$$     ",
"       $$##$$$###++##$#$##      ",
"         $##$$$####+####        ",
"           $$$$$#$$$$#          "};
