/* XPM */
static char * 1795233410_xpm[] = {
"32 32 7 1",
" 	c None",
".	c #F0B541",
"+	c #3B2027",
"@	c #CF752B",
"#	c #AB5130",
"$	c #7D3833",
"%	c #21181B",
"                                ",
"           ..+..++++++          ",
"         .+++...@@######        ",
"       ...........########      ",
"      .+........+..########     ",
"     ..........@...#########    ",
"    ...............###+#####$   ",
"   .@+++...........#########$$  ",
"   ..++............##########$  ",
"  @................#########$$$ ",
"  +................#########$$$ ",
" @+................##########$$$",
" .@...............###########$$$",
" ++..............########+###$$$",
" +...............#######++##$$$$",
" +@..............####+#+++##$$$$",
" @@.............#####+++++##%%$$",
" #@+...........######++++%%%%$$$",
" ##+@......##########++++%%$$$$$",
" ##++#####################%%$$$$",
" ###++################+%%%%$$$$$",
" ###++###############+++%%$$$$$%",
"  ###################++%%$$$$%% ",
"  ##################%+%%$$$$$%% ",
"   ##################%%$$$$$%%  ",
"   ##################$$$$$$%%%  ",
"    #++#######$#####$$$$$$%$$   ",
"     #+%#########$$$$$$$$$$$    ",
"      #%#$$$$$$$$$$$$$$$$$$     ",
"       $#$$$$$$$$$$$$$$$$$      ",
"         $$$$$$$$$$$$%$$        ",
"           %%$$$$$$$$$          "};
