/* XPM */
static char * planet_xpm[] = {
"32 32 7 1",
" 	c #110D1A",
".	c #561F52",
"+	c #57807C",
"@	c #83C0A8",
"#	c #2C3C40",
"$	c #391528",
"%	c #1D0A0D",
"                                ",
"           .+@@#++++#+          ",
"         @+.@@+++++++++#        ",
"       @...@@@+...++++#+##      ",
"      ...@@@@@@+.+.++++#+##     ",
"     .@@@..@@@@@@..@++$$++##    ",
"    .@@@....@@@@....@+$$+####   ",
"   @@@@@@@@.@@@@@@...+++++####  ",
"   @@..@@@@@@@@@@@...$++++####  ",
"  +....@@@@@@@@@@@+..$++++####% ",
"  @...@@..@.@@@@@+@..$+++%##### ",
" ....@@@.@@@@@@@@@@@@++#####%%##",
" ....@@@@@@@@@@@@+@@@++##$######",
" ....#+++@@@@@@@@@+@+++#$$%#####",
" ..@@+++++@@@@@@@+@+@++++++#####",
" ..@#+++++@@..@@+++@++++++######",
" ..+.+++.++@...@@++++++++#######",
" $++.++++++@...@+@++++++########",
" +@+++.+++@+@..++++++++++###%##%",
" @++++..+@+.++..++$+++++#######%",
" +.+.++++..+++++@$$+++++#####%##",
" $.+.+++.$$+++++++$$%+++######%%",
"  $+++++$+$++++++++%%%#######%# ",
"  #$$+#+$$$$++++#+##########%%# ",
"   #+#+#$$$$$$%%%########%##%#  ",
"   #%#%##$$%$$%%####%%##%%####  ",
"    +#%$+++%%$%%%%#%%%#%%%##%   ",
"     +%####%$%%########%%##%    ",
"      %#####%#%%%%#######%#     ",
"       #########%##%%%%%%%      ",
"         #####%##%%#%%%#        ",
"           %#####%%%%#          "};
