/* XPM */
static char *eebd1176b6294930af8d58d620dc97a7V3m9YZB9t6hsn8sr[] = {
/* columns rows colors chars-per-pixel */
"32 32 4 1 ",
"  c #110D1A",
". c #3A3F5E",
"X c #4C6885",
"o c #A3A7C2",
/* pixels */
"                                ",
"                                ",
"                                ",
"                                ",
"                                ",
"                                ",
"                 ooo            ",
"                 oX.            ",
"                  ..            ",
"                  ...           ",
"                 .XXX           ",
"                o.XoX           ",
"                ooooX         o ",
"                oooX.           ",
"        oo      ooX..           ",
"        .oXXoXooooXX            ",
"       .XoXXoooXXX.             ",
"     oooooX.XoXXX               ",
"     ooooX..XXXX.               ",
"     oXXX...XX..                ",
"        ....XX.                 ",
"           ...                  ",
"                  X             ",
"                 oXo            ",
"                 ooo            ",
"                 ooX            ",
"                                ",
"                    o.          ",
"                                ",
"                                ",
"                                ",
"                                "
};
