/* XPM */
static char *be7e492dca8449e7e0a24a75d037cf94PYVGPGvYyc3RVwk6[] = {
/* columns rows colors chars-per-pixel */
"32 32 4 1 ",
"  c #110D1A",
". c #3A3F5E",
"X c #4C6885",
"o c #A3A7C2",
/* pixels */
"                                ",
"                                ",
"                                ",
"                                ",
"                                ",
"                                ",
"                                ",
"           ooX                  ",
"           ooX                  ",
"          .ooX                  ",
"         .XooX.                 ",
"         oooX...XoXo            ",
"         ooooX..XoooX           ",
"         oXoX...XoXX..          ",
"         oXX.....XXX.Xoo        ",
"         XX......XXXXo.ooXo     ",
"          ......Xoooo.XXooo     ",
"             ...ooooooXoooo     ",
"              .XooooXXooooX     ",
"              oooooX..XooX.     ",
"              ooooo...XXX.      ",
"              ooooXX..X.XX      ",
"               oXX...Xooo       ",
"                     ooooo      ",
"                     ooooo      ",
"                     ooXX       ",
"                                ",
"                                ",
"                                ",
"                                ",
"                                ",
"                                "
};
