/* XPM */
static char *_08a64d147d04206f3ff6dbd7b2de6c3t7L6LZxCwgbSnmNI[] = {
/* columns rows colors chars-per-pixel */
"32 32 4 1 ",
"  c #110D1A",
". c #3A3F5E",
"X c #4C6885",
"o c #A3A7C2",
/* pixels */
"                                ",
"                                ",
"                                ",
"                                ",
"                                ",
"                  o             ",
"                 ooo            ",
"                 oo.            ",
"                 oX             ",
"                                ",
"                                ",
"                                ",
"                       oo       ",
"                       oo       ",
"            oo         oo       ",
"      o.   oooXXoooooo          ",
"      o.XXooooooooooXX          ",
"     ooXXXooooXoooooXX          ",
"     ooX.XoXXXoooooooX        o ",
"     ooX..XXXXXXXXXX..          ",
"      XX.XXXoXXX......          ",
"      ...XXX...........         ",
"       .XX..XXX..X.XXXX         ",
"                  XXoooX        ",
"                    oooX        ",
"                    ooX         ",
"                                ",
"                                ",
"                                ",
"                                ",
"                                ",
"                                "
};
