/* XPM */
static char *eb8e239ac81b458af6fa4448a70e3eb3gkzpN9ld9hgNTMLu[] = {
/* columns rows colors chars-per-pixel */
"32 32 4 1 ",
"  c #110D1A",
". c #3A3F5E",
"X c #4C6885",
"o c #A3A7C2",
/* pixels */
"                                ",
"                                ",
"                                ",
"                                ",
"                                ",
"           ooooo                ",
"           oooXX                ",
"           ooX...               ",
"           oX....               ",
"           oX....   ooo         ",
"           ooX..X.XooooX        ",
"          oooXX..XoooooXoo      ",
"          oooX...XoooooXooo     ",
"          oooX..XoXXXXX.XXXX    ",
"          oooX.XXX.........Xo   ",
"          ooo.X.X.........XXX   ",
"          oooX.X...             ",
"        XXooo....               ",
"       ooooooX.         o       ",
"        XXXXX..                 ",
"            .                   ",
"                  o             ",
"                                ",
"                                ",
"                                ",
"                                ",
"                                ",
"                                ",
"                                ",
"                                ",
"                                ",
"                                "
};
