/* XPM */
static char *_647c80a75374d18ca49c4a69f2f6fd0g5CeVEhK4IzMallv[] = {
/* columns rows colors chars-per-pixel */
"32 32 4 1 ",
"  c #110D1A",
". c #3A3F5E",
"X c #4C6885",
"o c #A3A7C2",
/* pixels */
"                                ",
"                                ",
"                                ",
"                                ",
"                  o             ",
"                 ooo            ",
"                 ooX            ",
"                 ooX            ",
"                oooX.           ",
"               oo.oX.X          ",
"               oooXX..          ",
"                XXX... oo       ",
"                oXX..  ooo      ",
"        oo      oooX..Xoo       ",
"      oo.X    .ooooX.X          ",
"     oo..XX  ooooooX..          ",
"      X.XXXXXoooooo.XX          ",
"        ..XXXoooooX.X           ",
"         XXXoooooXXX.           ",
"         oXXXXXXX.X..           ",
"             ..X.....           ",
"              .XX...            ",
"               oXXXXo           ",
"               oooooo           ",
"                ooooX           ",
"                oooX.           ",
"                oo.             ",
"               ..               ",
"               oo               ",
"               o                ",
"         oo       o             ",
"                                "
};
