/* XPM */
static char *e2d197632d554ecf8ae412d49b132255VdRKXKiWlvlsjXtz[] = {
/* columns rows colors chars-per-pixel */
"32 32 4 1 ",
"  c #110D1A",
". c #3A3F5E",
"X c #4C6885",
"o c #A3A7C2",
/* pixels */
"                                ",
"                                ",
"                                ",
"                                ",
"                                ",
"                                ",
"                                ",
"                                ",
"                                ",
"              oo..oo            ",
"           Xooo.XXoX.           ",
"          XoooooXXXX.           ",
"          oooooXXXXX.           ",
"          ooXXX.XXX..           ",
"          oX.........           ",
"             ........           ",
"              X.XX..XX          ",
"              o.X...XXX         ",
"               XX..Xooo         ",
"                oXXoooX         ",
"                oooooX.         ",
"                o.ooXX          ",
"                oooXXXoo        ",
"                 ooXXXooXX      ",
"                 ooXXXoooo      ",
"                 ooXXXXoXX      ",
"                    X           ",
"                                ",
"                                ",
"                 oX             ",
"                 ooo            ",
"                                "
};
