/* XPM */
static char *_f22261f98214a7eba28cebe70092b91baleaxoS3JC2Cc3l[] = {
/* columns rows colors chars-per-pixel */
"32 32 4 1 ",
"  c #110D1A",
". c #3A3F5E",
"X c #4C6885",
"o c #A3A7C2",
/* pixels */
"                                ",
"                                ",
"                                ",
"                                ",
"                                ",
"                                ",
"      oo                        ",
"      oX                        ",
"      o.                        ",
"                                ",
"           .XXo.X               ",
"           .XXXXXXXoo           ",
"           XXXXXXXXXXo          ",
"           oooXXX..XXX          ",
"          oooo.X...XXX          ",
"          oooo.XX..XXo.         ",
"         oooo.XX...Xo.XX        ",
"         oooX.XXX.XoooXXoo      ",
"         ooX.XXXXXXXooXXXo    o ",
"         ooXXXXXX.XXXXX.X       ",
"         oXXXXXX...X..          ",
"           .X.......            ",
"            ..                  ",
"                                ",
"                                ",
"                                ",
"                                ",
"                                ",
"                                ",
"                                ",
"                                ",
"                                "
};
