/* XPM */
static char *dd4dd0a0ef9c46dfd0a840e4a745be56L4b6ObmdLHJqqqjJ[] = {
/* columns rows colors chars-per-pixel */
"32 32 4 1 ",
"  c #110D1A",
". c #3A3F5E",
"X c #4C6885",
"o c #A3A7C2",
/* pixels */
"                                ",
"                                ",
"                                ",
"                                ",
"                                ",
"                                ",
"                                ",
"                                ",
"                                ",
"      oooX             oo       ",
"     ooXXX                      ",
"     ooXX..      Xo             ",
"     ooX....XoooXXooo           ",
"     oX.....XXXXXoXXX           ",
"       ......X.ooooX.           ",
"        .......oooX..           ",
"         XXXXXoooXXX.           ",
"         oXXXoooX....           ",
"         ooXXoooX....           ",
"         oXXXXXX...XX           ",
"         o.X.X.....XXo          ",
"          XXX.....X..o          ",
"          oXXX.X.X..XX          ",
"         oo   Xoo               ",
"        ooo   ooX               ",
"         o     o                ",
"                                ",
"                                ",
"                                ",
"                                ",
"                                ",
"                                "
};
