/* XPM */
static char *_9e92d54b4ed4e6dcf623cab5569e5fbhhzlqk9kPuiFZ9I8[] = {
/* columns rows colors chars-per-pixel */
"32 32 4 1 ",
"  c #110D1A",
". c #3A3F5E",
"X c #4C6885",
"o c #A3A7C2",
/* pixels */
"                                ",
"                                ",
"                                ",
"                                ",
"                                ",
"                                ",
"                 ooo            ",
"                 ooX            ",
"                 ooX            ",
"                 o..            ",
"                 .XX            ",
"      ooo        .X..Xo         ",
"     ooXXX       oXXXooo        ",
"      X...      ooXXXoX.        ",
"        ..    XoooXXooX.        ",
"        X..  Xo.oX.Xo.X.        ",
"        oXXXX.XXX..XoX.         ",
"        ooXXXoXX...             ",
"        ooXXXX..                ",
"        ooX.XX..X               ",
"          ..XX.Xoooooooo        ",
"           XXXXoo..ooooo.o      ",
"           ooXXXo.XoXXo.XXo     ",
"      ooo oooXXXooooXXooooX     ",
"      ooXXoooXXXoooooooooX.     ",
"      oX.   XXXXXooXXXXXXX      ",
"      oX        XXXX...X..      ",
"      .X         oX..           ",
"                 ooX            ",
"                  o             ",
"                                ",
"                                "
};
