/* XPM */
static char *_8767286344e4c1edfedb093547e0ef5J8YF3I49QTBh8ncr[] = {
/* columns rows colors chars-per-pixel */
"32 32 8 1 ",
"  c #110D1A",
". c black",
"X c #C7DCD0",
"o c white",
"O c #4D65B4",
"+ c #4D9BE6",
"@ c #484A77",
"# c #9BABB2",
/* pixels */
"                                ",
"                     ......     ",
"                    .XXooX.     ",
"                   .ooooX.      ",
"                  .oooooX.      ",
"                 .oooooX.       ",
"                .ooOOooX.       ",
"               .ooooooX.        ",
"              .ooOOOooX.        ",
"             .oooooooX.         ",
"            .XXXXXXXXX.         ",
"         ..............         ",
"       ..ooXX..........         ",
"     ..oo++oXXXXXXXXXX.......   ",
"    .oo++++ooooooooooooooooo.   ",
"   .ooOOOOOOooooooooooooooo.    ",
"   .XXOOOOOOXXXXXXXXXXXXXXX.    ",
"    .XX@@@@XXXXXXXXXXXXXXXXX.   ",
"     ..XX@@XX#########.......   ",
"       ..XX##..........         ",
"         ..............         ",
"            .#########.         ",
"             .XXXXXXX#.         ",
"              .XX@@@XX#.        ",
"               .XXXXXX#.        ",
"                .XX@@XX#.       ",
"                 .XXXXX#.       ",
"                  .XXXXX#.      ",
"                   .XXXX#.      ",
"                    .##XX#.     ",
"                     ......     ",
"                                "
};
