/* XPM */
static char *_d5b095912044e85bccf509c5dad1d9c7O8B3bvvajXd0AyJ[] = {
/* columns rows colors chars-per-pixel */
"32 32 195 2 ",
"   c #110D1A",
".  c black",
"X  c #010202",
"o  c #020302",
"O  c #040404",
"+  c #050606",
"@  c #090909",
"#  c #08090A",
"$  c #090C0A",
"%  c #0B0E0D",
"&  c #0A0D0E",
"*  c #0B0D0E",
"=  c #0B0E0F",
"-  c #0C0F0D",
";  c #0D110F",
":  c #101010",
">  c #121613",
",  c #131715",
"<  c #141414",
"1  c #151515",
"2  c #141916",
"3  c #151A1C",
"4  c #161B1D",
"5  c #181F1B",
"6  c #1B211D",
"7  c #181E21",
"8  c #191F22",
"9  c #11112F",
"0  c #111335",
"q  c #1D2423",
"w  c #1A2124",
"e  c #1E2529",
"r  c #222B26",
"t  c #232C27",
"y  c #20272B",
"u  c #242D28",
"i  c #252E28",
"p  c #252F29",
"a  c #252E2E",
"s  c #2B2B2B",
"d  c #2E2E2E",
"f  c #27312B",
"g  c #2A342E",
"h  c #242D31",
"j  c #262F33",
"k  c #2C3731",
"l  c #2E3A33",
"z  c #2B3638",
"x  c #323734",
"c  c #3C3C3C",
"v  c #3E3E3E",
"b  c #344139",
"n  c #34413A",
"m  c #37453D",
"M  c #303C41",
"N  c #343F4F",
"B  c #121E66",
"V  c #132174",
"C  c #3D4D44",
"Z  c #3E4E45",
"A  c #39474B",
"S  c #38464C",
"D  c #384452",
"F  c #3C4B52",
"G  c #3B4854",
"H  c #3C4A56",
"J  c #3E4C57",
"K  c #404040",
"L  c #424242",
"P  c #444444",
"I  c #404944",
"U  c #415248",
"Y  c #43544A",
"T  c #4B5A51",
"R  c #44535D",
"E  c #5A5A5A",
"W  c #5B5B5B",
"Q  c #54695D",
"!  c #465860",
"~  c #485860",
"^  c #4B5C62",
"/  c #4F6269",
"(  c #51646D",
")  c #52666E",
"_  c #576D6C",
"`  c #546972",
"'  c #586D75",
"]  c #596F76",
"[  c #5F7676",
"{  c #5C7378",
"}  c #5D7479",
"|  c #616161",
" . c #606964",
".. c #6C6C6C",
"X. c #627B6C",
"o. c #64796D",
"O. c #617876",
"+. c #637C78",
"@. c #627B7D",
"#. c #757575",
"$. c #698474",
"%. c #67807B",
"&. c #132C86",
"*. c #475F87",
"=. c #555F9B",
"-. c #556F8C",
";. c #5C659F",
":. c #636DA4",
">. c #717AAC",
",. c #747CAD",
"<. c #134FC2",
"1. c #1354CA",
"2. c #6B8683",
"3. c #728E89",
"4. c #749187",
"5. c #799886",
"6. c #78968D",
"7. c #79978E",
"8. c #799888",
"9. c #7B9A88",
"0. c #7C9B89",
"q. c #7D9D8A",
"w. c #7E9E8B",
"e. c #7A988C",
"r. c #7D9D91",
"t. c #7880B0",
"y. c #7D85B3",
"u. c #608CDB",
"i. c #6790DD",
"p. c #80A18E",
"a. c #82A393",
"s. c #83A591",
"d. c #83A596",
"f. c #84A697",
"g. c #87A995",
"h. c #8AA997",
"j. c #89AC97",
"k. c #86A798",
"l. c #88AA99",
"z. c #89AC9A",
"x. c #8CB09B",
"c. c #8EB19E",
"v. c #8FB39F",
"b. c #90B49F",
"n. c #90B59F",
"m. c #8F95BD",
"M. c #99ACA1",
"N. c #91B6A0",
"B. c #91B6A1",
"V. c #92B7A1",
"C. c #93B8A2",
"Z. c #94B8A3",
"A. c #99BBA7",
"S. c #9BBDA9",
"D. c #ABABAB",
"F. c #A1C0AE",
"G. c #A3C2B0",
"H. c #ADC0B5",
"J. c #B3C3BA",
"K. c #8AA5DD",
"L. c #A4BEDE",
"P. c #B1B6D1",
"I. c #A8BCE4",
"U. c #A6BEEB",
"Y. c #BBD2C4",
"T. c #C2D4CD",
"R. c #C7DACF",
"E. c #C9CDDF",
"W. c #CAD8D0",
"Q. c #C8DBD0",
"!. c #D4D4D4",
"~. c #D4D8D5",
"^. c #D8D8D8",
"/. c #DCDCDC",
"(. c #DDDDDD",
"). c #D3E2D9",
"_. c #D3D6E5",
"`. c #E1E1E1",
"'. c #E6E6E6",
"]. c #E3E5EF",
"[. c #E6EEEA",
"{. c #E8EFEB",
"}. c #EDEDED",
"|. c #EAF1ED",
" X c #EEF3F0",
".X c #EEF4F0",
"XX c #F0F0F0",
"oX c #F0F5F2",
"OX c #F6F6F6",
"+X c #F8FAF9",
"@X c #FAFCFA",
"#X c #FCFCFD",
"$X c #FDFDFD",
"%X c #FEFEFF",
"&X c white",
/* pixels */
"                                                                ",
"                                                                ",
"                                                                ",
"        . <   .                                                 ",
"      .  .!.'.| P .                                             ",
"      % 5.Q.m.I.U.D...L .                                       ",
"        s.-.V &.<.i.u.OXx . . , L < + v d . s v # : p .         ",
"      . m @.B V &.<.1.L.x.p k h.oX`./.&XXX^.}.&X/.~.A.n .       ",
"        f O.0 B V &.K. XZ.l . U G.oX].:.&XE.>.&X&X&X[.).E .     ",
"        . X.J 0 B V ,.&XY.X.. . U G.oXt.=.&X;.P.&X&X&X{.+XI .   ",
"          C G 9 ) *.T.&X&XY.X.. . U G.oXy._.&X+X&XR.Q.C.T Q .   ",
"          p x.[ V.V.V.Q.&X&XY.X.. . U G.oX|..XF.M.$.> g .       ",
"          . q ) r.6.V.V.Q.&X&XY.X.. . U S.8.o.C . .             ",
"            . 4 w S 2.V.V.Q.&X&XY.X.. . m 2                     ",
"            . 8 . . S 2.V.V.Q.&X&XY.X.. .                       ",
"            % / j . . S 2.V.V.Q.&X&XH.;                         ",
"            p z.} j . . S 2.V.V.Q.&X&X| .                       ",
"            - p.z.} j . . S 2.V.V.Q.&X&X| .                     ",
"            . q.a.z.} j . . S +.V.V.Q.&X&X| .                   ",
"            r V.H ~ z.} j . . # m V.V.Q.&X&X| .                 ",
"            6 j.b.N ^ z.' y .   . m V.V.J.E #..                 ",
"            . 0.4.b.e.k.! =       . m b.n                       ",
"            5 g.R D V.l.A           . m Y                       ",
"            t V.V.%.c.{ j             . .                       ",
"            + q.V.V.V._ .                                       ",
"            $ 8.V.V.3.F .                                       ",
"            4 ' f.V.4.%                                         ",
"            . e 6.f.` 8                                         ",
"              . n c.z .                                         ",
"                . a M                                           ",
"                  . .                                           ",
"                                                                "
};
