/* XPM */
static char *_26d0264a9754b4794f42b73bead753auOREvF2kHzWzkuj6[] = {
/* columns rows colors chars-per-pixel */
"32 32 8 1 ",
"  c #110D1A",
". c black",
"X c #9BABB2",
"o c #C7DCD0",
"O c #484A77",
"+ c #4D65B4",
"@ c white",
"# c #4D9BE6",
/* pixels */
"                                ",
"     ......                     ",
"     .XooXX.                    ",
"      .Xoooo.                   ",
"      .Xooooo.                  ",
"       .Xooooo.                 ",
"       .XooOOoo.                ",
"        .Xoooooo.               ",
"        .XooOOOoo.              ",
"         .Xooooooo.             ",
"         .XXXXXXXXX.            ",
"         ..............         ",
"         ..........XXoo..       ",
"   .......XXXXXXXXXooOOoo..     ",
"   .oooooooooooooooooOOOOoo.    ",
"    .ooooooooooooooo++++++oo.   ",
"    .@@@@@@@@@@@@@@@++++++@@.   ",
"   .@@@@@@@@@@@@@@@@@####@@.    ",
"   .......oooooooooo@##@@..     ",
"         ..........oo@@..       ",
"         ..............         ",
"         .ooooooooo.            ",
"         .o@@@@@@@.             ",
"        .o@@+++@@.              ",
"        .o@@@@@@.               ",
"       .o@@++@@.                ",
"       .o@@@@@.                 ",
"      .o@@@@@.                  ",
"      .o@@@@.                   ",
"     .o@@oo.                    ",
"     ......                     ",
"                                "
};
