/* XPM */
static char * terra1_xpm[] = {
"32 32 10 1",
" 	c None",
".	c #686F99",
"+	c #F5FFE8",
"@	c #DFE0E8",
"#	c #63AB3F",
"$	c #3B7D4F",
"%	c #2F5753",
"&	c #283540",
"*	c #404973",
"=	c #4FA4B8",
"                .               ",
"           +++@+++....          ",
"         #+@@+++++++++..        ",
"       ##$%%%+++@+++%%%..#      ",
"      ##$%%%%%%%%%%%##@@..#     ",
"     +##$%%%%%#%%&&%####%%..    ",
"    +$%%%%@@%%#%%%%%####$..$$   ",
"   %$%++++@@@@@%%%%#@##++.%%%*  ",
"   $%%###$%%%%#%####++++++%%.%  ",
"  %+@%##$%%%%##+#@++++++++%..** ",
"  %+%###$%%%+++#++++++++++@..** ",
" %%%###+++++++@@++++++++++...***",
" %%%@+++++++@@++++++++++++..****",
" %%@++++++@@++++++++++++++...**%",
" %%%+++++@++++++++++++++++...*=&",
" %%%+++++@++++++++++++++@@...%*%",
" %%#%@###$$%@+@@++++++++++%..&*%",
" #%#%%####%%%%%%##@++%++@%..%&**",
" +#=%$#@##%%%%%%%#%%%%%%#+.%&***",
" ##$$#=##+@++%%%%#%%%%%#+..%****",
" ##$$##$=@+++%%%###%%%++....****",
" =#%%%$$###%+@%%%##$@++....****%",
"  .%%%%#####@%@%%##++......**** ",
"  .%%%%#####@$%%@+++......**%%% ",
"   .%&%#####$$++++.......***%%  ",
"   $.%%##+##++++.........**%&%  ",
"    %.%%####@..........%**%*%   ",
"     &%%%###.........%%**%*%    ",
"      &%%%##$%.%...#%%%%***     ",
"       %%%%$$%%%%%$%%%&*&*      ",
"         ***%$%%%%%%%**&        ",
"           ****%******          "};
