/* XPM */
static char * Terra3_xpm[] = {
"32 32 10 1",
" 	c None",
".	c #63AB3F",
"+	c #DFE0E8",
"@	c #3B7D4F",
"#	c #2F5753",
"$	c #F5FFE8",
"%	c #686F99",
"&	c #4FA4B8",
"*	c #283540",
"=	c #404973",
"                                ",
"           ...++.@####          ",
"         ..@$###@#+$$%%%        ",
"       ...@####+$$$$$+###&      ",
"      ....###+$$$$$$$$$%%%&     ",
"     ....######...+###$#**#&    ",
"    ...#######...@#########&%   ",
"   ##.######.#########$+##%%&=  ",
"   ##.#*#..##########$$+$%%%&.  ",
"  $#.##*...@##**###$$$$$$%%#..= ",
"  #.####...+#**#+$$$$$$$$$#.&.. ",
" .#######$$$$$$$$$$++$$$$.##..=#",
" @######$$$$$$$$$+#++$$...@%#..#",
" #**####..#*#.@#####@##....@#..@",
" #*#...#.@##..#######......@##.@",
" +#...@#####.@##.###......@@##..",
" ###@.##########+++#+.....@###..",
" ###$+@##..####+$##..+.@...@#..@",
" ###+$+###.###+$$+$$$..........@",
" ###...+##.####+++++$.......@..@",
" ###+..@$#.####............@@#@#",
" ###.$.@##..#..............@##&#",
"  ##....###.......&.......%###= ",
"  ###.@@@##...&&&&..+..%%%=##&* ",
"   ####..##.&&&&&&+...%%%=##&=  ",
"   ##**#&&&&&&..&&&@%%%%==&&=&  ",
"    #**#.&&&...&&&&%%%%===.*#   ",
"     ###..@@@#&&&%%%%=##=.*#    ",
"      ##...@###%%%==&&###*#     ",
"       ###.@#%%===#*#&.#=#      ",
"         *#####****#===*        ",
"           =*****#===#          "};
