/* XPM */
static char *_6497dbac63a406b9b2660dff96e58b5XVVahOCKemVW3E8G[] = {
/* columns rows colors chars-per-pixel */
"32 32 10 1 ",
"  c #110D1A",
". c #283540",
"X c #2F5753",
"o c #3B7D4F",
"O c #404973",
"+ c #63AB3F",
"@ c #686F99",
"# c #4FA4B8",
"$ c #DFE0E8",
"% c #F5FFE8",
/* pixels */
"                                ",
"           #########X#          ",
"         ##%%%$#####$@@@        ",
"       ##$%%%%########@o@X      ",
"      +o%%%%%###########XXX     ",
"     %$X%%%%##++++#%%###O#XX    ",
"    #XX$$X+++++++#+#######XXX   ",
"   %XXXXo++++###++XX########XX  ",
"   $XXX+###+####+#XXO########X  ",
"  ##XX##+++++++++#XX##########. ",
"  ##++##++++++++o#XX####+#####. ",
" %##Xo##++++++++o##XX###+#######",
" ####+##+#++o#X+oXXXX##########O",
" X##++#####X##X##X#XX###++######",
" X##+######X#XX###XXXXX++######O",
" X%++#######XXX####XXXX++oo####O",
" X$++###%%$##X##X#XXXXX++#XX@#XO",
" X+++###%%$#####X.XXXXXXXXX.@OOO",
" .o+###$%%$#####...XXXX$X..@@OOO",
" X++####$%$####X...XX%%XXOO@.XO#",
" X+##+####%#####XXX$%%XXX.@@X#OO",
" #X#############XXX%$ooXXX@X#XOX",
"  .X#XX#######XXXXXXXoo#X@@XXXX ",
"  OX###X+######XXXXXXXX@@@OX#X. ",
"   X##+++#######XXX...@@@O#X#.  ",
"   ###++@@%$#####XX.X@@@#O...X  ",
"    #@+@@@@@@@##X...XX@X#X.OX   ",
"     +@+@@@@@@##X..X##OO##OX    ",
"      #o@@O@@@#O.####OO##O#     ",
"       XXoOOO@X.O#######O#      ",
"         .XXOOOX.####O#O        ",
"           X.X##X#O#O#          "
};
