/* XPM */
static char * terra2_xpm[] = {
"32 32 10 1",
" 	c #110D1A",
".	c #F5FFE8",
"+	c #2F5753",
"@	c #DFE0E8",
"#	c #4FA4B8",
"$	c #686F99",
"%	c #63AB3F",
"&	c #3B7D4F",
"*	c #283540",
"=	c #404973",
"                                ",
"           ...++++++++          ",
"         @####@..@++++$$        ",
"       @%%#&.....@+++@$$+$      ",
"      %%%#.............$$*$     ",
"     %%%#..............$$$$%    ",
"    .+##+@..............$$#$#   ",
"   .@@%&++++++%%+.....@@.%$$+=  ",
"   ..%.+++++@@++@.###@..#%$$##  ",
"  ..@.@+++%%%%%@++@@@@###.$$++= ",
"  ++..@++%%%%&+++#########+%%++ ",
" &#++*++%%%%&%+++%#########+%+++",
" ++***++%%%%%%%%%%#########%#++*",
" .@**+++%%%%&%%##############+*=",
" +.*+++%%%%%%%###############===",
" +..++%%%%%#####%#############==",
".++..&%%%%#%%%%%#############===",
" +@*...@%%#%%%%%##%###########==",
" .+...%%%.%%%%%##%%#########$==*",
" @@@+%.%%.%%%%###%&#########===+",
" **.+%%%.@%%%%@@###########$==#=",
" $***%%%%%...%%###.#######$==#=+",
"  +++%%%%%..%%###%.######$==%&# ",
"  $$++%#%%%..##%..#######==+++= ",
"   #+*%%%%%&...%%%#+++##$=#++=  ",
"   $#*+%#%%&%##%%@#++######+*=  ",
"    $#*%#%%%%#@$$$#+##+=+=+*#   ",
"     $*%##%$$$$$$$####===+*+    ",
"      =*&$$$$$$$$$#$==+=+*+     ",
"       +##$%$=======#+=+=+      ",
"         *%%%%&=======+=        ",
"           +*&=+++==*+          "};
