/* XPM */
static char * vert_laser2_xpm[] = {
"32 32 254 2",
"  	c #110D1A",
". 	c #A0FF00",
"+ 	c #89FF00",
"@ 	c #8AFF00",
"# 	c #28FFE0",
"$ 	c #7FFF07",
"% 	c #71FF00",
"& 	c #7BFF00",
"* 	c #77FF6C",
"= 	c #43FFD0",
"- 	c #00FFE9",
"; 	c #37FFDE",
"> 	c #62FFB6",
", 	c #6FFF03",
"' 	c #67FF00",
") 	c #22FFD7",
"! 	c #62FF83",
"~ 	c #81FF16",
"{ 	c #A8FF86",
"] 	c #CBFFA4",
"^ 	c #8FFF54",
"/ 	c #2DFFDC",
"( 	c #58FF87",
"_ 	c #5DFF00",
": 	c #61FF16",
"< 	c #02FF58",
"[ 	c #00FFD2",
"} 	c #00FFAE",
"| 	c #34FFCC",
"1 	c #59FFBA",
"2 	c #D4FFAB",
"3 	c #41FFDC",
"4 	c #A1FF52",
"5 	c #9EFF01",
"6 	c #6EFF00",
"7 	c #63FF00",
"8 	c #08FFB4",
"9 	c #3DFFB8",
"0 	c #6DFF56",
"a 	c #41FFE4",
"b 	c #BAFFB2",
"c 	c #A9FF3C",
"d 	c #B1FF05",
"e 	c #9DFF00",
"f 	c #76FF00",
"g 	c #19FFCC",
"h 	c #B5FF7C",
"i 	c #C5FF8B",
"j 	c #B1FF5B",
"k 	c #A6FF29",
"l 	c #AFFF01",
"m 	c #85FF84",
"n 	c #32FFC4",
"o 	c #62FF60",
"p 	c #CEFFA4",
"q 	c #B0FF69",
"r 	c #C1FF85",
"s 	c #A9FF49",
"t 	c #96FF85",
"u 	c #98FF84",
"v 	c #46FF9F",
"w 	c #62FF7D",
"x 	c #48FFBB",
"y 	c #B1FF30",
"z 	c #C2FFAA",
"A 	c #C7FF9A",
"B 	c #A2FF60",
"C 	c #A2FF4D",
"D 	c #6DFFB6",
"E 	c #B1FF01",
"F 	c #A4FF00",
"G 	c #BBFF00",
"H 	c #A5FF5E",
"I 	c #ABFF90",
"J 	c #BFFF7D",
"K 	c #75FFC1",
"L 	c #88FF92",
"M 	c #3CFFDB",
"N 	c #24FFE6",
"O 	c #55FFD3",
"P 	c #C6FF8E",
"Q 	c #ABFF7B",
"R 	c #C0FF8F",
"S 	c #9FFFAD",
"T 	c #13FFE7",
"U 	c #95FF3B",
"V 	c #46FFC7",
"W 	c #1CFFE6",
"X 	c #54FFC0",
"Y 	c #9DFF48",
"Z 	c #B3FF97",
"` 	c #C5FF89",
" .	c #A2FFA4",
"..	c #56FFDE",
"+.	c #B3FF74",
"@.	c #88FF38",
"#.	c #05FFE8",
"$.	c #89FE45",
"%.	c #98FF70",
"&.	c #9BFF95",
"*.	c #ACFF80",
"=.	c #ABFF77",
"-.	c #9CFF31",
";.	c #89FF5A",
">.	c #00FFCD",
",.	c #03FFAE",
"'.	c #72FF4C",
").	c #9DFFA0",
"!.	c #46FFDA",
"~.	c #8FFF98",
"{.	c #B1FF6F",
"].	c #A9FF7B",
"^.	c #B1FF6A",
"/.	c #B7FF41",
"(.	c #71FF02",
"_.	c #00FFB6",
":.	c #2AFFE6",
"<.	c #91FF88",
"[.	c #99FF72",
"}.	c #A8FF7B",
"|.	c #88FF57",
"1.	c #A1FF77",
"2.	c #BFFF2D",
"3.	c #12FFB4",
"4.	c #4FFF81",
"5.	c #83FF58",
"6.	c #B7FF9C",
"7.	c #9BFF78",
"8.	c #99FF7A",
"9.	c #9EFF7C",
"0.	c #92FF6C",
"a.	c #A8FF74",
"b.	c #8FFF6B",
"c.	c #8AFF62",
"d.	c #95FF7B",
"e.	c #9CFF7F",
"f.	c #A0FF82",
"g.	c #A8FF7C",
"h.	c #9EFF79",
"i.	c #3AFFCC",
"j.	c #06FFE9",
"k.	c #AEFF7A",
"l.	c #91FF71",
"m.	c #95FF7D",
"n.	c #ADFF88",
"o.	c #A2FF78",
"p.	c #56FFD9",
"q.	c #62FF85",
"r.	c #62FF7E",
"s.	c #90FF42",
"t.	c #9FFF64",
"u.	c #8DFF66",
"v.	c #94FF6A",
"w.	c #8DFF9B",
"x.	c #54FFD7",
"y.	c #8EFFBD",
"z.	c #9AFF50",
"A.	c #1AFFB0",
"B.	c #6DFFAF",
"C.	c #8CFF3B",
"D.	c #75FF2A",
"E.	c #8CFF6F",
"F.	c #71FFA0",
"G.	c #21FFE5",
"H.	c #8FFFA6",
"I.	c #C4FFA3",
"J.	c #A6FF00",
"K.	c #68FFC9",
"L.	c #89FF91",
"M.	c #77FF7D",
"N.	c #71FF9F",
"O.	c #35FFD9",
"P.	c #69FFB4",
"Q.	c #82FF5B",
"R.	c #BEFF97",
"S.	c #78FFC1",
"T.	c #8BFFA4",
"U.	c #5FFFBF",
"V.	c #98FFAA",
"W.	c #94FF7A",
"X.	c #83FF97",
"Y.	c #6CFFB8",
"Z.	c #96FF95",
"`.	c #1CFFC9",
" +	c #69FF99",
".+	c #63FFC9",
"++	c #9FFF7D",
"@+	c #ACFF7C",
"#+	c #B5FF79",
"$+	c #9AFF8A",
"%+	c #71FFB3",
"&+	c #69FFC8",
"*+	c #57FE14",
"=+	c #8BFF04",
"-+	c #B1FF2D",
";+	c #AEFF51",
">+	c #A6FF7D",
",+	c #C4FF8C",
"'+	c #C2FF98",
")+	c #89FF78",
"!+	c #05FFE9",
"~+	c #77FF01",
"{+	c #92FF12",
"]+	c #BAFF3D",
"^+	c #C2FF83",
"/+	c #A3FF64",
"(+	c #75FFD4",
"_+	c #7BFD7A",
":+	c #6DFF44",
"<+	c #92FF00",
"[+	c #72FF01",
"}+	c #A2FF20",
"|+	c #B9FF3F",
"1+	c #52FFD9",
"2+	c #9CFF97",
"3+	c #06FF5F",
"4+	c #9AFF00",
"5+	c #6AFF73",
"6+	c #60FFC9",
"7+	c #C8FF82",
"8+	c #B2FF78",
"9+	c #93FF4A",
"0+	c #00FFB4",
"a+	c #09FFBF",
"b+	c #60FF55",
"c+	c #82FF6C",
"d+	c #53FFB8",
"e+	c #72FF15",
"f+	c #A7FF33",
"g+	c #C7FF74",
"h+	c #77FF5E",
"i+	c #00FFBD",
"j+	c #52FF00",
"k+	c #24FFD5",
"l+	c #5DFF6D",
"m+	c #80FF0D",
"n+	c #8AFF27",
"o+	c #BEFF73",
"p+	c #BAFF45",
"q+	c #66FF00",
"r+	c #5CFF00",
"s+	c #64FF01",
"t+	c #6BFF0B",
"u+	c #60FF0D",
"v+	c #87FF23",
"w+	c #A3FF41",
"x+	c #7CFF73",
"y+	c #84FF00",
"z+	c #7AFF00",
"A+	c #65FF00",
"B+	c #5FFF01",
"C+	c #5AFF08",
"D+	c #83FF00",
"E+	c #6DFF00",
"                          . + + @ @ #                           ",
"                        $ @ % & * = @                           ",
"                    - ; > $ , ' ) ! ~                           ",
"                        { ] ^ / ( _ : <                         ",
"                  [ } | 1 2 3 4 5 6 7 8                         ",
"                      9 0 a b c d e f g                         ",
"              -           h i j k l m n                         ",
"                      o   p q r s t u v w x                     ",
"                        y z A B C D E F     -                   ",
"                        G H I J K L M =                         ",
"            -       N O @ P Q R S T U V                         ",
"                    W X Y Z `  ...+.@.      %                   ",
"              -   - #.  $.%.&...*.=.-.;.    %                   ",
"                  >.,.  '.).!.~.{.].^./.  (.    -               ",
"                  _.      :.<.[.}.|.1.2.                        ",
"                    3.4.5.6.7.8.9.0.a.                          ",
"                        b.c.d.e.f.g.h.                          ",
"                i.  j.    k.l.m.n.o.p.q.                        ",
"                r.      s.t.u.v.w.x.y.z.      %                 ",
"                    A.B.C.D.E.F.G.H.I.J.                        ",
"                      K.L.M.N.O.P.Q.R.                          ",
"                        S.T.U.V.W.X.Y.Z.                        ",
"                      `. +.+++@+#+$+%+&+    -                   ",
"                        *+=+-+;+>+,+'+)+!+                      ",
"                          ~+{+]+^+/+(+_+          :+            ",
"                          <+[+}+|+1+2+                          ",
"            %         3+  4+@ 5+6+7+8+9+                        ",
"                    0+  a+b+c+d+e+f+g+h+                        ",
"                    i+    j+k+l+m+n+o+p+                        ",
"                          V q+r+s+t+u+v+w+                      ",
"                          x+y+z+6 A+B+C+                        ",
"                          @ @ + D+E+6                           "};
