/* XPM */
static char * vert_laser3_xpm[] = {
"32 32 282 2",
"  	c #110D1A",
". 	c #2BFFE4",
"+ 	c #89FEA7",
"@ 	c #8AFF84",
"# 	c #89FF00",
"$ 	c #8AFF00",
"% 	c #28FFE0",
"& 	c #00FFE9",
"* 	c #7FFF07",
"= 	c #71FF00",
"- 	c #7BFF00",
"; 	c #77FF6C",
"> 	c #43FFD0",
", 	c #88FF00",
"' 	c #48FFBA",
") 	c #31FFE0",
"! 	c #54FFC5",
"~ 	c #7CFF3D",
"{ 	c #6FFF03",
"] 	c #67FF00",
"^ 	c #22FFD7",
"/ 	c #62FF83",
"( 	c #81FF16",
"_ 	c #6BFF21",
": 	c #0DFFE8",
"< 	c #51FFDA",
"[ 	c #8EFFAC",
"} 	c #C6FFA9",
"| 	c #8FFF54",
"1 	c #2DFFDC",
"2 	c #58FF87",
"3 	c #5DFF00",
"4 	c #61FF16",
"5 	c #02FF58",
"6 	c #00FFD6",
"7 	c #00FFAE",
"8 	c #34FFCC",
"9 	c #59FFBA",
"0 	c #D4FFAB",
"a 	c #41FFDC",
"b 	c #A1FF52",
"c 	c #9EFF01",
"d 	c #6EFF00",
"e 	c #63FF00",
"f 	c #08FFB4",
"g 	c #30FFD6",
"h 	c #3DFFB8",
"i 	c #6DFF56",
"j 	c #41FFE4",
"k 	c #BAFFB2",
"l 	c #A9FF3C",
"m 	c #B1FF05",
"n 	c #9DFF00",
"o 	c #76FF00",
"p 	c #19FFCC",
"q 	c #B5FF7C",
"r 	c #C5FF8B",
"s 	c #B1FF5B",
"t 	c #A6FF29",
"u 	c #AFFF01",
"v 	c #85FF84",
"w 	c #32FFC4",
"x 	c #62FF60",
"y 	c #CEFFA4",
"z 	c #B0FF69",
"A 	c #C1FF85",
"B 	c #A9FF49",
"C 	c #96FF85",
"D 	c #98FF84",
"E 	c #46FF9F",
"F 	c #62FF7D",
"G 	c #48FFBB",
"H 	c #76FF3C",
"I 	c #8CFF1A",
"J 	c #C2FFAA",
"K 	c #C7FF9A",
"L 	c #A2FF60",
"M 	c #A2FF4D",
"N 	c #6DFFB6",
"O 	c #B1FF01",
"P 	c #A4FF00",
"Q 	c #31FFD4",
"R 	c #67FF2D",
"S 	c #74FF92",
"T 	c #BBFF00",
"U 	c #A5FF5E",
"V 	c #ABFF90",
"W 	c #BFFF7D",
"X 	c #75FFC1",
"Y 	c #88FF92",
"Z 	c #3CFFDB",
"` 	c #71FF05",
" .	c #24FFE6",
"..	c #55FFD3",
"+.	c #C6FF8E",
"@.	c #ABFF7B",
"#.	c #C0FF8F",
"$.	c #9FFFAD",
"%.	c #13FFE7",
"&.	c #95FF3B",
"*.	c #46FFC7",
"=.	c #70FF16",
"-.	c #1CFFE6",
";.	c #54FFC0",
">.	c #9DFF48",
",.	c #B3FF97",
"'.	c #C5FF89",
").	c #A2FFA4",
"!.	c #56FFDE",
"~.	c #B3FF74",
"{.	c #88FF38",
"].	c #70FF23",
"^.	c #05FFE8",
"/.	c #89FE45",
"(.	c #98FF70",
"_.	c #9BFF95",
":.	c #ACFF80",
"<.	c #ABFF77",
"[.	c #9CFF31",
"}.	c #89FF5A",
"|.	c #00FFCD",
"1.	c #03FFAE",
"2.	c #72FF4C",
"3.	c #9DFFA0",
"4.	c #46FFDA",
"5.	c #8FFF98",
"6.	c #B1FF6F",
"7.	c #A9FF7B",
"8.	c #B1FF6A",
"9.	c #B7FF41",
"0.	c #71FF02",
"a.	c #00FFB6",
"b.	c #2AFFE6",
"c.	c #91FF88",
"d.	c #99FF72",
"e.	c #A8FF7B",
"f.	c #88FF57",
"g.	c #A1FF77",
"h.	c #BFFF2D",
"i.	c #12FFB4",
"j.	c #4FFF81",
"k.	c #83FF58",
"l.	c #B7FF9C",
"m.	c #9BFF78",
"n.	c #99FF7A",
"o.	c #9EFF7C",
"p.	c #92FF6C",
"q.	c #A8FF74",
"r.	c #9EFD1A",
"s.	c #8FFF6B",
"t.	c #8AFF62",
"u.	c #95FF7B",
"v.	c #9CFF7F",
"w.	c #A0FF82",
"x.	c #A8FF7C",
"y.	c #9EFF79",
"z.	c #3AFFCC",
"A.	c #04FFE9",
"B.	c #AEFF7A",
"C.	c #91FF71",
"D.	c #95FF7D",
"E.	c #ADFF88",
"F.	c #A2FF78",
"G.	c #56FFD9",
"H.	c #62FF85",
"I.	c #62FF7E",
"J.	c #1FFFE7",
"K.	c #8EFF3F",
"L.	c #9FFF64",
"M.	c #8DFF66",
"N.	c #94FF6A",
"O.	c #8DFF9B",
"P.	c #54FFD7",
"Q.	c #8EFFBD",
"R.	c #94FF48",
"S.	c #1AFFB0",
"T.	c #6EFF94",
"U.	c #86FF33",
"V.	c #75FF2A",
"W.	c #8CFF6F",
"X.	c #71FFA0",
"Y.	c #21FFE5",
"Z.	c #8FFFA6",
"`.	c #C4FFA3",
" +	c #8BFF00",
".+	c #6CFF22",
"++	c #68FFC9",
"@+	c #89FF91",
"#+	c #77FF7D",
"$+	c #71FF9F",
"%+	c #35FFD9",
"&+	c #69FFB4",
"*+	c #82FF5B",
"=+	c #BEFF97",
"-+	c #78FFC1",
";+	c #8BFFA4",
">+	c #5FFFBF",
",+	c #98FFAA",
"'+	c #94FF7A",
")+	c #83FF97",
"!+	c #6CFFB8",
"~+	c #96FF95",
"{+	c #72FF12",
"]+	c #71FF07",
"^+	c #6EFF38",
"/+	c #5AFF8C",
"(+	c #1CFFC9",
"_+	c #69FF99",
":+	c #63FFC9",
"<+	c #9FFF7D",
"[+	c #ACFF7C",
"}+	c #B5FF79",
"|+	c #9AFF8A",
"1+	c #71FFB3",
"2+	c #69FFC8",
"3+	c #4AFFB8",
"4+	c #57FE14",
"5+	c #8BFF04",
"6+	c #B1FF2D",
"7+	c #AEFF51",
"8+	c #A6FF7D",
"9+	c #C4FF8C",
"0+	c #C2FF98",
"a+	c #89FF78",
"b+	c #05FFE9",
"c+	c #00FFE7",
"d+	c #77FF01",
"e+	c #92FF12",
"f+	c #BAFF3D",
"g+	c #C2FF83",
"h+	c #A3FF64",
"i+	c #75FFD4",
"j+	c #7BFD7A",
"k+	c #92FF00",
"l+	c #72FF01",
"m+	c #A2FF20",
"n+	c #B9FF3F",
"o+	c #52FFD9",
"p+	c #9CFF97",
"q+	c #06FF5F",
"r+	c #9AFF00",
"s+	c #6AFF73",
"t+	c #60FFC9",
"u+	c #C8FF82",
"v+	c #B2FF78",
"w+	c #93FF4A",
"x+	c #00FFB4",
"y+	c #09FFBF",
"z+	c #60FF55",
"A+	c #82FF6C",
"B+	c #53FFB8",
"C+	c #72FF15",
"D+	c #A7FF33",
"E+	c #C7FF74",
"F+	c #77FF5E",
"G+	c #00FFDF",
"H+	c #00FFC9",
"I+	c #52FF00",
"J+	c #24FFD5",
"K+	c #5DFF6D",
"L+	c #80FF0D",
"M+	c #8AFF27",
"N+	c #BEFF73",
"O+	c #BAFF45",
"P+	c #66FF00",
"Q+	c #5CFF00",
"R+	c #64FF01",
"S+	c #6BFF0B",
"T+	c #60FF0D",
"U+	c #86FF2F",
"V+	c #6FFFB9",
"W+	c #26FFDD",
"X+	c #76FF85",
"Y+	c #84FF00",
"Z+	c #7AFF00",
"`+	c #65FF00",
" @	c #5FFF01",
".@	c #54FF5A",
"+@	c #36FFC3",
"@@	c #89FF1B",
"#@	c #83FF00",
"$@	c #6DFF00",
"                      . + @ # # $ $ %       &                   ",
"                  &     * $ = - ; > , '                         ",
"                  & & ) ! ~ { ] ^ / (   _                       ",
"              &   & : < [ } | 1 2 3 4 5   =                     ",
"                  6 7 8 9 0 a b c d e f     g                   ",
"                      h i j k l m n o p       =                 ",
"                          q r s t u v w                         ",
"                      x   y z A B C D E F G   =                 ",
"                      H I J K L M N O P =   Q                   ",
"                    R S T U V W X Y Z > ` =                     ",
"                     ...$ +.@.#.$.%.&.*.=.                      ",
"                    -.;.>.,.'.).!.~.{.                          ",
"              ].  & ^.  /.(._.!.:.<.[.}.                        ",
"                  |.1.  2.3.4.5.6.7.8.9.  0.                    ",
"                  a.      b.c.d.e.f.g.h.                        ",
"            =       i.j.k.l.m.n.o.p.q.r.          &             ",
"            =           s.t.u.v.w.x.y.    =         &           ",
"                z.  A.    B.C.D.E.F.G.H.    =                   ",
"          =     I.  J.  K.L.M.N.O.P.Q.R.                        ",
"              &     S.T.U.V.W.X.Y.Z.`. +                        ",
"                    .+++@+#+$+%+&+*+=+    =                     ",
"                  =     -+;+>+,+'+)+!+~+{+=                     ",
"              ]+^+  /+(+_+:+<+[+}+|+1+2+    3+          &       ",
"            = =         4+5+6+7+8+9+0+a+b+                      ",
"                & & c+    d+e+f+g+h+i+j+                        ",
"                          k+l+m+n+o+p+                          ",
"                      q+  r+$ s+t+u+v+w+                        ",
"                    x+  y+z+A+B+C+D+E+F+        =               ",
"                  G+H+    I+J+K+L+M+N+O+                        ",
"                      &   *.P+Q+R+S+T+U+V+&     W+              ",
"                          X+Y+Z+d `+ @.@+@&                     ",
"                          @@$ # #@$@d                           "};
