/* XPM */
static char * vert_laser_xpm[] = {
"32 32 227 2",
"  	c #110D1A",
". 	c #A0FF00",
"+ 	c #89FF00",
"@ 	c #8AFF00",
"# 	c #28FFE0",
"$ 	c #7FFF07",
"% 	c #71FF00",
"& 	c #7BFF00",
"* 	c #77FF6C",
"= 	c #43FFD0",
"- 	c #91FF1A",
"; 	c #6FFF03",
"> 	c #67FF00",
", 	c #22FFD7",
"' 	c #62FF83",
") 	c #81FF16",
"! 	c #B6FF62",
"~ 	c #CBFFA4",
"{ 	c #8FFF54",
"] 	c #2DFFDC",
"^ 	c #58FF87",
"/ 	c #5DFF00",
"( 	c #61FF16",
"_ 	c #02FF58",
": 	c #01FF63",
"< 	c #00FF6B",
"[ 	c #7EFF66",
"} 	c #D4FFAB",
"| 	c #41FFDC",
"1 	c #A1FF52",
"2 	c #9EFF01",
"3 	c #6EFF00",
"4 	c #63FF00",
"5 	c #6DFF56",
"6 	c #41FFE4",
"7 	c #BAFFB2",
"8 	c #A9FF3C",
"9 	c #B1FF05",
"0 	c #9DFF00",
"a 	c #76FF00",
"b 	c #36FF26",
"c 	c #B5FF7C",
"d 	c #C5FF8B",
"e 	c #B1FF5B",
"f 	c #A6FF29",
"g 	c #AFFF01",
"h 	c #9BFF00",
"i 	c #62FF60",
"j 	c #CEFFA4",
"k 	c #B0FF69",
"l 	c #C1FF85",
"m 	c #A9FF49",
"n 	c #AEFF0D",
"o 	c #B1FF00",
"p 	c #55FF63",
"q 	c #37FF66",
"r 	c #B1FF30",
"s 	c #C2FFAA",
"t 	c #C7FF9A",
"u 	c #A2FF60",
"v 	c #A2FF4D",
"w 	c #A0FF29",
"x 	c #B1FF01",
"y 	c #BBFF00",
"z 	c #A5FF5E",
"A 	c #ABFF90",
"B 	c #BFFF7D",
"C 	c #ABFF73",
"D 	c #88FF92",
"E 	c #41FFD8",
"F 	c #C6FF8E",
"G 	c #ABFF7B",
"H 	c #C0FF8F",
"I 	c #9FFFAD",
"J 	c #13FFE7",
"K 	c #95FF3B",
"L 	c #88FF00",
"M 	c #A3FF00",
"N 	c #B3FF97",
"O 	c #C5FF89",
"P 	c #A2FFA4",
"Q 	c #56FFDE",
"R 	c #B3FF74",
"S 	c #88FF38",
"T 	c #8EFE06",
"U 	c #98FF70",
"V 	c #9BFF95",
"W 	c #ACFF80",
"X 	c #ABFF77",
"Y 	c #9CFF31",
"Z 	c #89FF5A",
"` 	c #44FF6A",
" .	c #05FF6B",
"..	c #72FF4C",
"+.	c #9DFFA0",
"@.	c #46FFDA",
"#.	c #8FFF98",
"$.	c #B1FF6F",
"%.	c #A9FF7B",
"&.	c #B1FF6A",
"*.	c #B7FF41",
"=.	c #2AFFE6",
"-.	c #91FF88",
";.	c #99FF72",
">.	c #A8FF7B",
",.	c #88FF57",
"'.	c #A1FF77",
").	c #BFFF2D",
"!.	c #84FF52",
"~.	c #B7FF9C",
"{.	c #9BFF78",
"].	c #99FF7A",
"^.	c #9EFF7C",
"/.	c #92FF6C",
"(.	c #A8FF74",
"_.	c #9AFF33",
":.	c #8AFF62",
"<.	c #95FF7B",
"[.	c #9CFF7F",
"}.	c #A0FF82",
"|.	c #A8FF7C",
"1.	c #9EFF79",
"2.	c #AEFF7A",
"3.	c #91FF71",
"4.	c #95FF7D",
"5.	c #ADFF88",
"6.	c #A2FF78",
"7.	c #56FFD9",
"8.	c #73FF00",
"9.	c #95FF48",
"0.	c #9FFF64",
"a.	c #8DFF66",
"b.	c #94FF6A",
"c.	c #8DFF9B",
"d.	c #54FFD7",
"e.	c #8EFFBD",
"f.	c #A1FF00",
"g.	c #25FF6B",
"h.	c #8EFF68",
"i.	c #A5FF57",
"j.	c #75FF2B",
"k.	c #8CFF6F",
"l.	c #71FFA0",
"m.	c #21FFE5",
"n.	c #8FFFA6",
"o.	c #C4FFA3",
"p.	c #A6FF00",
"q.	c #BAFF46",
"r.	c #8DFF41",
"s.	c #71FF9F",
"t.	c #35FFD9",
"u.	c #69FFB4",
"v.	c #82FF5B",
"w.	c #BEFF97",
"x.	c #C1FF26",
"y.	c #A2FF7B",
"z.	c #5FFFBF",
"A.	c #98FFAA",
"B.	c #94FF7A",
"C.	c #93FF70",
"D.	c #92FF70",
"E.	c #B8FF00",
"F.	c #39FF00",
"G.	c #71FF85",
"H.	c #63FFC9",
"I.	c #9FFF7D",
"J.	c #ACFF7C",
"K.	c #B5FF79",
"L.	c #9EFF82",
"M.	c #B7FF00",
"N.	c #57FE14",
"O.	c #8BFF04",
"P.	c #B1FF2D",
"Q.	c #AEFF51",
"R.	c #A6FF7D",
"S.	c #C4FF8C",
"T.	c #C2FF98",
"U.	c #9AFF00",
"V.	c #77FF01",
"W.	c #92FF12",
"X.	c #BAFF3D",
"Y.	c #C2FF83",
"Z.	c #A3FF64",
"`.	c #75FFD4",
" +	c #92FF00",
".+	c #72FF01",
"++	c #A2FF20",
"@+	c #B9FF3F",
"#+	c #52FFD9",
"$+	c #9CFF97",
"%+	c #06FF5F",
"&+	c #6AFF73",
"*+	c #60FFC9",
"=+	c #C8FF82",
"-+	c #B2FF78",
";+	c #93FF4A",
">+	c #66FF00",
",+	c #82FF6C",
"'+	c #53FFB8",
")+	c #72FF15",
"!+	c #A7FF33",
"~+	c #C7FF74",
"{+	c #77FF5E",
"]+	c #54FF69",
"^+	c #52FF00",
"/+	c #24FFD5",
"(+	c #5DFF6D",
"_+	c #80FF0D",
":+	c #8AFF27",
"<+	c #BEFF73",
"[+	c #BAFF45",
"}+	c #BAFF5E",
"|+	c #46FFC7",
"1+	c #5CFF00",
"2+	c #64FF01",
"3+	c #6BFF0B",
"4+	c #60FF0D",
"5+	c #87FF23",
"6+	c #A3FF41",
"7+	c #7CFF73",
"8+	c #84FF00",
"9+	c #7AFF00",
"0+	c #65FF00",
"a+	c #5FFF01",
"b+	c #5AFF08",
"c+	c #83FF00",
"d+	c #6DFF00",
"                          . + + @ @ #                           ",
"                        $ @ % & * = @                           ",
"                        - $ ; > , ' )                           ",
"                        ! ~ { ] ^ / ( _ : <                     ",
"                        [ } | 1 2 3 4         <                 ",
"                        5 6 7 8 9 0 a b                         ",
"                          c d e f g h             <             ",
"                      i   j k l m n o p q                       ",
"            <           r s t u v w x                           ",
"                        y z A B C D E                           ",
"                        @ F G H I J K                           ",
"                      L M N O P Q R S                           ",
"                        T U V Q W X Y Z `                       ",
"              <      .  ..+.@.#.$.%.&.*.          <             ",
"              < <         =.-.;.>.,.'.).                        ",
"                      p !.~.{.].^./.(.                          ",
"                        _.:.<.[.}.|.1.                          ",
"              <           2.3.4.5.6.7.8.                        ",
"              <         9.0.a.b.c.d.e.f.                        ",
"              < <   g.h.i.j.k.l.m.n.o.p.    <                   ",
"                        q.r.s.t.u.v.w.                          ",
"                        x.y.z.A.B.C.D.E.                        ",
"              <       F.G.H.I.J.K.L.C.M.                        ",
"                        N.O.P.Q.R.S.T.U.                        ",
"                          V.W.X.Y.Z.`.                          ",
"                           +.+++@+#+$+                          ",
"                      %+  U.@ &+*+=+-+;+                        ",
"                          >+,+'+)+!+~+{+]+                      ",
"                          ^+/+(+_+:+<+[+}+                      ",
"                          |+>+1+2+3+4+5+6+  <                   ",
"                          7+8+9+3 0+a+b+                        ",
"                          @ @ + c+d+3                           "};
