/* XPM */
static char * vert_laser1_xpm[] = {
"32 32 252 2",
"  	c #110D1A",
". 	c #A0FF00",
"+ 	c #89FF00",
"@ 	c #8AFF00",
"# 	c #28FFE0",
"$ 	c #7FFF07",
"% 	c #71FF00",
"& 	c #7BFF00",
"* 	c #77FF6C",
"= 	c #43FFD0",
"- 	c #00FFE9",
"; 	c #37FFDE",
"> 	c #62FFB6",
", 	c #6FFF03",
"' 	c #67FF00",
") 	c #22FFD7",
"! 	c #62FF83",
"~ 	c #81FF16",
"{ 	c #B6FF62",
"] 	c #CBFFA4",
"^ 	c #8FFF54",
"/ 	c #2DFFDC",
"( 	c #58FF87",
"_ 	c #5DFF00",
": 	c #61FF16",
"< 	c #02FF58",
"[ 	c #01FF63",
"} 	c #00FF6B",
"| 	c #7EFF66",
"1 	c #D4FFAB",
"2 	c #41FFDC",
"3 	c #A1FF52",
"4 	c #9EFF01",
"5 	c #6EFF00",
"6 	c #63FF00",
"7 	c #08FFB4",
"8 	c #01FFDF",
"9 	c #00FFE8",
"0 	c #6DFF56",
"a 	c #41FFE4",
"b 	c #BAFFB2",
"c 	c #A9FF3C",
"d 	c #B1FF05",
"e 	c #9DFF00",
"f 	c #76FF00",
"g 	c #19FFCC",
"h 	c #B5FF7C",
"i 	c #C5FF8B",
"j 	c #B1FF5B",
"k 	c #A6FF29",
"l 	c #AFFF01",
"m 	c #85FF84",
"n 	c #41FFA7",
"o 	c #62FF60",
"p 	c #CEFFA4",
"q 	c #B0FF69",
"r 	c #C1FF85",
"s 	c #A9FF49",
"t 	c #96FF85",
"u 	c #98FF84",
"v 	c #55FF63",
"w 	c #37FF66",
"x 	c #B1FF30",
"y 	c #C2FFAA",
"z 	c #C7FF9A",
"A 	c #A2FF60",
"B 	c #A2FF4D",
"C 	c #6DFFB6",
"D 	c #B1FF01",
"E 	c #BBFF00",
"F 	c #A5FF5E",
"G 	c #ABFF90",
"H 	c #BFFF7D",
"I 	c #75FFC1",
"J 	c #88FF92",
"K 	c #3CFFDB",
"L 	c #33FFE3",
"M 	c #24FFE6",
"N 	c #55FFD3",
"O 	c #C6FF8E",
"P 	c #ABFF7B",
"Q 	c #C0FF8F",
"R 	c #9FFFAD",
"S 	c #13FFE7",
"T 	c #95FF3B",
"U 	c #2AFFE2",
"V 	c #61FFAE",
"W 	c #A3FF00",
"X 	c #B3FF97",
"Y 	c #C5FF89",
"Z 	c #A2FFA4",
"` 	c #56FFDE",
" .	c #B3FF74",
"..	c #88FF38",
"+.	c #0FFFE8",
"@.	c #0BFFE7",
"#.	c #8EFE06",
"$.	c #98FF70",
"%.	c #9BFF95",
"&.	c #ACFF80",
"*.	c #ABFF77",
"=.	c #9CFF31",
"-.	c #89FF5A",
";.	c #44FF6A",
">.	c #00FFD4",
",.	c #00FFC7",
"'.	c #03FFAE",
").	c #72FF4C",
"!.	c #9DFFA0",
"~.	c #46FFDA",
"{.	c #8FFF98",
"].	c #B1FF6F",
"^.	c #A9FF7B",
"/.	c #B1FF6A",
"(.	c #B7FF41",
"_.	c #00FFB3",
":.	c #00FFCC",
"<.	c #00FFB6",
"[.	c #2AFFE6",
"}.	c #91FF88",
"|.	c #99FF72",
"1.	c #A8FF7B",
"2.	c #88FF57",
"3.	c #A1FF77",
"4.	c #BFFF2D",
"5.	c #12FFB4",
"6.	c #84FF52",
"7.	c #B7FF9C",
"8.	c #9BFF78",
"9.	c #99FF7A",
"0.	c #9EFF7C",
"a.	c #92FF6C",
"b.	c #A8FF74",
"c.	c #9AFF33",
"d.	c #8AFF62",
"e.	c #95FF7B",
"f.	c #9CFF7F",
"g.	c #A0FF82",
"h.	c #A8FF7C",
"i.	c #9EFF79",
"j.	c #AEFF7A",
"k.	c #91FF71",
"l.	c #95FF7D",
"m.	c #ADFF88",
"n.	c #A2FF78",
"o.	c #56FFD9",
"p.	c #62FF85",
"q.	c #95FF48",
"r.	c #9FFF64",
"s.	c #8DFF66",
"t.	c #94FF6A",
"u.	c #8DFF9B",
"v.	c #54FFD7",
"w.	c #8EFFBD",
"x.	c #9AFF50",
"y.	c #00FFC8",
"z.	c #25FF6B",
"A.	c #8EFF68",
"B.	c #A5FF57",
"C.	c #75FF2B",
"D.	c #8CFF6F",
"E.	c #71FFA0",
"F.	c #21FFE5",
"G.	c #8FFFA6",
"H.	c #C4FFA3",
"I.	c #A6FF00",
"J.	c #BAFF46",
"K.	c #79FF8D",
"L.	c #71FF9F",
"M.	c #35FFD9",
"N.	c #69FFB4",
"O.	c #82FF5B",
"P.	c #BEFF97",
"Q.	c #83FFB7",
"R.	c #8BFFA4",
"S.	c #5FFFBF",
"T.	c #98FFAA",
"U.	c #94FF7A",
"V.	c #83FF97",
"W.	c #6CFFB8",
"X.	c #96FF95",
"Y.	c #1CFFC9",
"Z.	c #69FF99",
"`.	c #63FFC9",
" +	c #9FFF7D",
".+	c #ACFF7C",
"++	c #B5FF79",
"@+	c #9AFF8A",
"#+	c #71FFB3",
"$+	c #72FFC0",
"%+	c #5EFFD5",
"&+	c #57FE14",
"*+	c #8BFF04",
"=+	c #B1FF2D",
"-+	c #AEFF51",
";+	c #A6FF7D",
">+	c #C4FF8C",
",+	c #C2FF98",
"'+	c #9AFF00",
")+	c #77FF01",
"!+	c #92FF12",
"~+	c #BAFF3D",
"{+	c #C2FF83",
"]+	c #A3FF64",
"^+	c #75FFD4",
"/+	c #92FF00",
"(+	c #72FF01",
"_+	c #A2FF20",
":+	c #B9FF3F",
"<+	c #52FFD9",
"[+	c #9CFF97",
"}+	c #06FF5F",
"|+	c #6AFF73",
"1+	c #60FFC9",
"2+	c #C8FF82",
"3+	c #B2FF78",
"4+	c #93FF4A",
"5+	c #00FFB4",
"6+	c #09FFBF",
"7+	c #60FF55",
"8+	c #82FF6C",
"9+	c #53FFB8",
"0+	c #72FF15",
"a+	c #A7FF33",
"b+	c #C7FF74",
"c+	c #77FF5E",
"d+	c #54FF69",
"e+	c #00FFBD",
"f+	c #52FF00",
"g+	c #24FFD5",
"h+	c #5DFF6D",
"i+	c #80FF0D",
"j+	c #8AFF27",
"k+	c #BEFF73",
"l+	c #BAFF45",
"m+	c #BAFF5E",
"n+	c #46FFC7",
"o+	c #66FF00",
"p+	c #5CFF00",
"q+	c #64FF01",
"r+	c #6BFF0B",
"s+	c #60FF0D",
"t+	c #87FF23",
"u+	c #A3FF41",
"v+	c #7CFF73",
"w+	c #84FF00",
"x+	c #7AFF00",
"y+	c #65FF00",
"z+	c #5FFF01",
"A+	c #5AFF08",
"B+	c #83FF00",
"C+	c #6DFF00",
"                          . + + @ @ #                           ",
"                        $ @ % & * = @                           ",
"                    - ; > $ , ' ) ! ~                           ",
"                        { ] ^ / ( _ : < [ }                     ",
"                        | 1 2 3 4 5 6 7 8 9                     ",
"                        0 a b c d e f g   -                     ",
"                          h i j k l m n                         ",
"                      o   p q r s t u v w                       ",
"                        x y z A B C D                           ",
"                        E F G H I J K L                         ",
"                    M N @ O P Q R S T   -                       ",
"                    U V W X Y Z `  ...  +.- -                   ",
"                  - @.  #.$.%.` &.*.=.-.;.  >.-                 ",
"                  ,.'.  ).!.~.{.].^./.(.    _.:.                ",
"                :.<.      [.}.|.1.2.3.4.                        ",
"                -   5.v 6.7.8.9.0.a.b.                          ",
"                        c.d.e.f.g.h.i.                          ",
"                          j.k.l.m.n.o.p.          -             ",
"                        q.r.s.t.u.v.w.x.                        ",
"                  y.z.A.B.C.D.E.F.G.H.I.    }                   ",
"              -         J.K.L.M.N.O.P.                          ",
"                        Q.R.S.T.U.V.W.X.                        ",
"                      Y.Z.`. +.+++@+#+$+%+                      ",
"                  -     &+*+=+-+;+>+,+'+                        ",
"                          )+!+~+{+]+^+      9                   ",
"                          /+(+_+:+<+[+                          ",
"                      }+  '+@ |+1+2+3+4+        -               ",
"                    5+  6+7+8+9+0+a+b+c+d+                      ",
"                -   e+    f+g+h+i+j+k+l+m+                      ",
"                          n+o+p+q+r+s+t+u+                      ",
"                          v+w+x+5 y+z+A+                        ",
"                          @ @ + B+C+5                           "};
